<?xml version="1.0" encoding="UTF-8" standalone="no"?>
<!-- Created with Inkscape (http://www.inkscape.org/) -->

<svg
   xmlns:dc="http://purl.org/dc/elements/1.1/"
   xmlns:cc="http://creativecommons.org/ns#"
   xmlns:rdf="http://www.w3.org/1999/02/22-rdf-syntax-ns#"
   xmlns:svg="http://www.w3.org/2000/svg"
   xmlns="http://www.w3.org/2000/svg"
   xmlns:xlink="http://www.w3.org/1999/xlink"
   xmlns:sodipodi="http://sodipodi.sourceforge.net/DTD/sodipodi-0.dtd"
   xmlns:inkscape="http://www.inkscape.org/namespaces/inkscape"
   width="1024"
   height="512"
   id="svg2"
   sodipodi:version="0.32"
   inkscape:version="0.48.0 r9654"
   version="1.0"
   sodipodi:docname="Arrows_MP.svg"
   inkscape:output_extension="org.inkscape.output.svg.inkscape"
   inkscape:export-filename="C:\Users\Edward\Documents\Android Workspace\ShokoRocketAndroid\ShokoRocket\assets\Bitmaps\Game\Arrows_MP.png"
   inkscape:export-xdpi="45"
   inkscape:export-ydpi="45">
  <defs
     id="defs4">
    <linearGradient
       id="linearGradient3257">
      <stop
         style="stop-color:#ffffff;stop-opacity:0;"
         offset="0"
         id="stop3259" />
      <stop
         style="stop-color:#ffffff;stop-opacity:0.86725664;"
         offset="1"
         id="stop3261" />
    </linearGradient>
    <linearGradient
       id="linearGradient3227">
      <stop
         style="stop-color:#00ffff;stop-opacity:0;"
         offset="0"
         id="stop3229" />
      <stop
         style="stop-color:#ffffff;stop-opacity:1;"
         offset="1"
         id="stop3231" />
    </linearGradient>
    <inkscape:perspective
       sodipodi:type="inkscape:persp3d"
       inkscape:vp_x="0 : 526.18109 : 1"
       inkscape:vp_y="0 : 1000 : 0"
       inkscape:vp_z="744.09448 : 526.18109 : 1"
       inkscape:persp3d-origin="372.04724 : 350.78739 : 1"
       id="perspective10" />
    <linearGradient
       inkscape:collect="always"
       xlink:href="#linearGradient3227"
       id="linearGradient3233"
       x1="72.951019"
       y1="40.337017"
       x2="38"
       y2="30.34375"
       gradientUnits="userSpaceOnUse" />
    <linearGradient
       inkscape:collect="always"
       xlink:href="#linearGradient3257"
       id="linearGradient5853"
       gradientUnits="userSpaceOnUse"
       gradientTransform="translate(96,16)"
       x1="-40"
       y1="40"
       x2="-72"
       y2="8" />
    <linearGradient
       inkscape:collect="always"
       xlink:href="#linearGradient3257"
       id="linearGradient5855"
       gradientUnits="userSpaceOnUse"
       gradientTransform="translate(96,16)"
       x1="-40"
       y1="40"
       x2="-72"
       y2="8" />
    <linearGradient
       inkscape:collect="always"
       xlink:href="#linearGradient3257"
       id="linearGradient5857"
       gradientUnits="userSpaceOnUse"
       gradientTransform="translate(96,16)"
       x1="-40"
       y1="40"
       x2="-72"
       y2="8" />
    <linearGradient
       inkscape:collect="always"
       xlink:href="#linearGradient3257"
       id="linearGradient5859"
       gradientUnits="userSpaceOnUse"
       gradientTransform="translate(96,16)"
       x1="-40"
       y1="40"
       x2="-72"
       y2="8" />
    <linearGradient
       inkscape:collect="always"
       xlink:href="#linearGradient3257"
       id="linearGradient5893"
       gradientUnits="userSpaceOnUse"
       gradientTransform="translate(96,16)"
       x1="-40"
       y1="40"
       x2="-72"
       y2="8" />
    <linearGradient
       inkscape:collect="always"
       xlink:href="#linearGradient3257"
       id="linearGradient5895"
       gradientUnits="userSpaceOnUse"
       gradientTransform="translate(96,16)"
       x1="-40"
       y1="40"
       x2="-72"
       y2="8" />
    <linearGradient
       inkscape:collect="always"
       xlink:href="#linearGradient3257"
       id="linearGradient5897"
       gradientUnits="userSpaceOnUse"
       gradientTransform="translate(96,16)"
       x1="-40"
       y1="40"
       x2="-72"
       y2="8" />
    <linearGradient
       inkscape:collect="always"
       xlink:href="#linearGradient3257"
       id="linearGradient5899"
       gradientUnits="userSpaceOnUse"
       gradientTransform="translate(96,16)"
       x1="-40"
       y1="40"
       x2="-72"
       y2="8" />
    <linearGradient
       inkscape:collect="always"
       xlink:href="#linearGradient3257"
       id="linearGradient5965"
       gradientUnits="userSpaceOnUse"
       gradientTransform="translate(96,16)"
       x1="-40"
       y1="40"
       x2="-72"
       y2="8" />
    <linearGradient
       inkscape:collect="always"
       xlink:href="#linearGradient3257"
       id="linearGradient5967"
       gradientUnits="userSpaceOnUse"
       gradientTransform="translate(96,16)"
       x1="-40"
       y1="40"
       x2="-72"
       y2="8" />
    <linearGradient
       inkscape:collect="always"
       xlink:href="#linearGradient3257"
       id="linearGradient5969"
       gradientUnits="userSpaceOnUse"
       gradientTransform="translate(96,16)"
       x1="-40"
       y1="40"
       x2="-72"
       y2="8" />
    <linearGradient
       inkscape:collect="always"
       xlink:href="#linearGradient3257"
       id="linearGradient5971"
       gradientUnits="userSpaceOnUse"
       gradientTransform="translate(96,16)"
       x1="-40"
       y1="40"
       x2="-72"
       y2="8" />
    <linearGradient
       inkscape:collect="always"
       xlink:href="#linearGradient3257"
       id="linearGradient5973"
       gradientUnits="userSpaceOnUse"
       gradientTransform="translate(96,16)"
       x1="-40"
       y1="40"
       x2="-72"
       y2="8" />
    <linearGradient
       inkscape:collect="always"
       xlink:href="#linearGradient3257"
       id="linearGradient5975"
       gradientUnits="userSpaceOnUse"
       gradientTransform="translate(96,16)"
       x1="-40"
       y1="40"
       x2="-72"
       y2="8" />
    <linearGradient
       inkscape:collect="always"
       xlink:href="#linearGradient3257"
       id="linearGradient5977"
       gradientUnits="userSpaceOnUse"
       gradientTransform="translate(96,16)"
       x1="-40"
       y1="40"
       x2="-72"
       y2="8" />
    <linearGradient
       inkscape:collect="always"
       xlink:href="#linearGradient3257"
       id="linearGradient5979"
       gradientUnits="userSpaceOnUse"
       gradientTransform="translate(96,16)"
       x1="-40"
       y1="40"
       x2="-72"
       y2="8" />
    <linearGradient
       inkscape:collect="always"
       xlink:href="#linearGradient3257"
       id="linearGradient6111"
       gradientUnits="userSpaceOnUse"
       gradientTransform="translate(96,16)"
       x1="-40"
       y1="40"
       x2="-72"
       y2="8" />
    <linearGradient
       inkscape:collect="always"
       xlink:href="#linearGradient3257"
       id="linearGradient6113"
       gradientUnits="userSpaceOnUse"
       gradientTransform="translate(96,16)"
       x1="-40"
       y1="40"
       x2="-72"
       y2="8" />
    <linearGradient
       inkscape:collect="always"
       xlink:href="#linearGradient3257"
       id="linearGradient6115"
       gradientUnits="userSpaceOnUse"
       gradientTransform="translate(96,16)"
       x1="-40"
       y1="40"
       x2="-72"
       y2="8" />
    <linearGradient
       inkscape:collect="always"
       xlink:href="#linearGradient3257"
       id="linearGradient6117"
       gradientUnits="userSpaceOnUse"
       gradientTransform="translate(96,16)"
       x1="-40"
       y1="40"
       x2="-72"
       y2="8" />
    <linearGradient
       inkscape:collect="always"
       xlink:href="#linearGradient3257"
       id="linearGradient6119"
       gradientUnits="userSpaceOnUse"
       gradientTransform="translate(96,16)"
       x1="-40"
       y1="40"
       x2="-72"
       y2="8" />
    <linearGradient
       inkscape:collect="always"
       xlink:href="#linearGradient3257"
       id="linearGradient6121"
       gradientUnits="userSpaceOnUse"
       gradientTransform="translate(96,16)"
       x1="-40"
       y1="40"
       x2="-72"
       y2="8" />
    <linearGradient
       inkscape:collect="always"
       xlink:href="#linearGradient3257"
       id="linearGradient6123"
       gradientUnits="userSpaceOnUse"
       gradientTransform="translate(96,16)"
       x1="-40"
       y1="40"
       x2="-72"
       y2="8" />
    <linearGradient
       inkscape:collect="always"
       xlink:href="#linearGradient3257"
       id="linearGradient6125"
       gradientUnits="userSpaceOnUse"
       gradientTransform="translate(96,16)"
       x1="-40"
       y1="40"
       x2="-72"
       y2="8" />
    <linearGradient
       inkscape:collect="always"
       xlink:href="#linearGradient3257"
       id="linearGradient6191"
       gradientUnits="userSpaceOnUse"
       gradientTransform="translate(96,16)"
       x1="-40"
       y1="40"
       x2="-72"
       y2="8" />
    <linearGradient
       inkscape:collect="always"
       xlink:href="#linearGradient3257"
       id="linearGradient6193"
       gradientUnits="userSpaceOnUse"
       gradientTransform="translate(96,16)"
       x1="-40"
       y1="40"
       x2="-72"
       y2="8" />
    <linearGradient
       inkscape:collect="always"
       xlink:href="#linearGradient3257"
       id="linearGradient6195"
       gradientUnits="userSpaceOnUse"
       gradientTransform="translate(96,16)"
       x1="-40"
       y1="40"
       x2="-72"
       y2="8" />
    <linearGradient
       inkscape:collect="always"
       xlink:href="#linearGradient3257"
       id="linearGradient6197"
       gradientUnits="userSpaceOnUse"
       gradientTransform="translate(96,16)"
       x1="-40"
       y1="40"
       x2="-72"
       y2="8" />
    <linearGradient
       inkscape:collect="always"
       xlink:href="#linearGradient3257"
       id="linearGradient6199"
       gradientUnits="userSpaceOnUse"
       gradientTransform="translate(96,16)"
       x1="-40"
       y1="40"
       x2="-72"
       y2="8" />
    <linearGradient
       inkscape:collect="always"
       xlink:href="#linearGradient3257"
       id="linearGradient6201"
       gradientUnits="userSpaceOnUse"
       gradientTransform="translate(96,16)"
       x1="-40"
       y1="40"
       x2="-72"
       y2="8" />
    <linearGradient
       inkscape:collect="always"
       xlink:href="#linearGradient3257"
       id="linearGradient6203"
       gradientUnits="userSpaceOnUse"
       gradientTransform="translate(96,16)"
       x1="-40"
       y1="40"
       x2="-72"
       y2="8" />
    <linearGradient
       inkscape:collect="always"
       xlink:href="#linearGradient3257"
       id="linearGradient6205"
       gradientUnits="userSpaceOnUse"
       gradientTransform="translate(96,16)"
       x1="-40"
       y1="40"
       x2="-72"
       y2="8" />
  </defs>
  <sodipodi:namedview
     id="base"
     pagecolor="#ffffff"
     bordercolor="#666666"
     borderopacity="1.0"
     gridtolerance="10000"
     guidetolerance="10"
     objecttolerance="10"
     inkscape:pageopacity="0.0"
     inkscape:pageshadow="2"
     inkscape:zoom="0.7"
     inkscape:cx="496.65676"
     inkscape:cy="214.34574"
     inkscape:document-units="px"
     inkscape:current-layer="layer1"
     showgrid="true"
     inkscape:window-width="1280"
     inkscape:window-height="738"
     inkscape:window-x="-8"
     inkscape:window-y="-8"
     inkscape:window-maximized="1">
    <inkscape:grid
       type="xygrid"
       id="grid2383"
       visible="true"
       enabled="true"
       spacingx="8px"
       spacingy="8px"
       empspacing="4"
       snapvisiblegridlinesonly="true" />
  </sodipodi:namedview>
  <metadata
     id="metadata7">
    <rdf:RDF>
      <cc:Work
         rdf:about="">
        <dc:format>image/svg+xml</dc:format>
        <dc:type
           rdf:resource="http://purl.org/dc/dcmitype/StillImage" />
        <dc:title></dc:title>
      </cc:Work>
    </rdf:RDF>
  </metadata>
  <g
     inkscape:label="Layer 1"
     inkscape:groupmode="layer"
     id="layer1"
     transform="translate(0,384)">
    <g
       id="g3271"
       transform="translate(0.5,-384.5)">
      <rect
         ry="23.784994"
         y="0"
         x="0"
         height="128"
         width="128"
         id="rect2385"
         style="fill:#ff0000;fill-rule:evenodd;stroke:#ffffff;stroke-width:1px;stroke-linecap:butt;stroke-linejoin:miter;stroke-opacity:1;fill-opacity:1" />
      <rect
         ry="23.784994"
         y="8"
         x="8"
         height="112"
         width="112"
         id="rect3255"
         style="fill:url(#linearGradient5853);fill-opacity:1;fill-rule:evenodd;stroke:none" />
      <path
         sodipodi:nodetypes="cccccccc"
         id="path3265"
         d="m 24,64 20,0 0,-40 40,0 0,40 20,0 -40,40 -40,-40 z"
         style="fill:#ffffff;fill-opacity:1;fill-rule:evenodd;stroke:#ffbabc;stroke-width:6.37500000000000000;stroke-linecap:butt;stroke-linejoin:miter;stroke-miterlimit:4;stroke-opacity:1;stroke-dasharray:none"
         inkscape:connector-curvature="0" />
    </g>
    <g
       id="g3276"
       transform="translate(128.5,-384.5)">
      <rect
         ry="23.784994"
         y="0"
         x="0"
         height="128"
         width="128"
         id="rect3278"
         style="fill:#ff0000;fill-rule:evenodd;stroke:#ffffff;stroke-width:1px;stroke-linecap:butt;stroke-linejoin:miter;stroke-opacity:1;fill-opacity:1" />
      <rect
         ry="23.784994"
         y="8"
         x="8"
         height="112"
         width="112"
         id="rect3280"
         style="fill:url(#linearGradient5855);fill-opacity:1;fill-rule:evenodd;stroke:none" />
      <path
         sodipodi:nodetypes="cccccccc"
         id="path3282"
         d="m 64,24 0,20 40,0 0,40 -40,0 0,20 L 24,64 64,24 z"
         style="fill:#ffffff;fill-opacity:1;fill-rule:evenodd;stroke:#ffbabc;stroke-width:6.37500000000000000;stroke-linecap:butt;stroke-linejoin:miter;stroke-miterlimit:4;stroke-opacity:1;stroke-dasharray:none"
         inkscape:connector-curvature="0" />
    </g>
    <g
       id="g3286"
       transform="translate(256.5,-384.5)">
      <rect
         ry="23.784994"
         y="0"
         x="0"
         height="128"
         width="128"
         id="rect3288"
         style="fill:#ff0000;fill-rule:evenodd;stroke:#ffffff;stroke-width:1px;stroke-linecap:butt;stroke-linejoin:miter;stroke-opacity:1;fill-opacity:1" />
      <rect
         ry="23.784994"
         y="8"
         x="8"
         height="112"
         width="112"
         id="rect3290"
         style="fill:url(#linearGradient5857);fill-opacity:1;fill-rule:evenodd;stroke:none" />
      <path
         sodipodi:nodetypes="cccccccc"
         id="path3292"
         d="m 64,104 0,-20 -40,0 0,-40 40,0 0,-20 40,40 -40,40 z"
         style="fill:#ffffff;fill-opacity:1;fill-rule:evenodd;stroke:#ffbabc;stroke-width:6.37500000000000000;stroke-linecap:butt;stroke-linejoin:miter;stroke-miterlimit:4;stroke-opacity:1;stroke-dasharray:none"
         inkscape:connector-curvature="0" />
    </g>
    <g
       id="g3296"
       transform="translate(384.5,-384.5)">
      <rect
         ry="23.784994"
         y="0"
         x="0"
         height="128"
         width="128"
         id="rect3298"
         style="fill:#ff0000;fill-rule:evenodd;stroke:#ffffff;stroke-width:1px;stroke-linecap:butt;stroke-linejoin:miter;stroke-opacity:1;fill-opacity:1" />
      <rect
         ry="23.784994"
         y="8"
         x="8"
         height="112"
         width="112"
         id="rect3300"
         style="fill:url(#linearGradient5859);fill-opacity:1;fill-rule:evenodd;stroke:none" />
      <path
         sodipodi:nodetypes="cccccccc"
         id="path3302"
         d="m 104,64 -20,0 0,40 -40,0 0,-40 -20,0 40,-40 40,40 z"
         style="fill:#ffffff;fill-opacity:1;fill-rule:evenodd;stroke:#ffbabc;stroke-width:6.37500000000000000;stroke-linecap:butt;stroke-linejoin:miter;stroke-miterlimit:4;stroke-opacity:1;stroke-dasharray:none"
         inkscape:connector-curvature="0" />
    </g>
    <g
       transform="matrix(0.7,0,0,0.7,531.7,-365.3)"
       id="g5861">
      <rect
         style="fill:#ff0000;fill-rule:evenodd;stroke:#ffffff;stroke-width:1px;stroke-linecap:butt;stroke-linejoin:miter;stroke-opacity:1;fill-opacity:1"
         id="rect5863"
         width="128"
         height="128"
         x="0"
         y="0"
         ry="23.784994" />
      <rect
         style="fill:url(#linearGradient5893);fill-opacity:1;fill-rule:evenodd;stroke:none"
         id="rect5865"
         width="112"
         height="112"
         x="8"
         y="8"
         ry="23.784994" />
      <path
         inkscape:connector-curvature="0"
         style="fill:#ffffff;fill-opacity:1;fill-rule:evenodd;stroke:#ffbabc;stroke-width:6.37500000000000000;stroke-linecap:butt;stroke-linejoin:miter;stroke-miterlimit:4;stroke-opacity:1;stroke-dasharray:none"
         d="m 24,64 20,0 0,-40 40,0 0,40 20,0 -40,40 -40,-40 z"
         id="path5867"
         sodipodi:nodetypes="cccccccc" />
    </g>
    <g
       transform="matrix(0.7,0,0,0.7,659.7,-365.3)"
       id="g5869">
      <rect
         style="fill:#ff0000;fill-rule:evenodd;stroke:#ffffff;stroke-width:1px;stroke-linecap:butt;stroke-linejoin:miter;stroke-opacity:1;fill-opacity:1"
         id="rect5871"
         width="128"
         height="128"
         x="0"
         y="0"
         ry="23.784994" />
      <rect
         style="fill:url(#linearGradient5895);fill-opacity:1;fill-rule:evenodd;stroke:none"
         id="rect5873"
         width="112"
         height="112"
         x="8"
         y="8"
         ry="23.784994" />
      <path
         inkscape:connector-curvature="0"
         style="fill:#ffffff;fill-opacity:1;fill-rule:evenodd;stroke:#ffbabc;stroke-width:6.37500000000000000;stroke-linecap:butt;stroke-linejoin:miter;stroke-miterlimit:4;stroke-opacity:1;stroke-dasharray:none"
         d="m 64,24 0,20 40,0 0,40 -40,0 0,20 L 24,64 64,24 z"
         id="path5875"
         sodipodi:nodetypes="cccccccc" />
    </g>
    <g
       transform="matrix(0.7,0,0,0.7,787.7,-365.3)"
       id="g5877">
      <rect
         style="fill:#ff0000;fill-rule:evenodd;stroke:#ffffff;stroke-width:1px;stroke-linecap:butt;stroke-linejoin:miter;stroke-opacity:1;fill-opacity:1"
         id="rect5879"
         width="128"
         height="128"
         x="0"
         y="0"
         ry="23.784994" />
      <rect
         style="fill:url(#linearGradient5897);fill-opacity:1;fill-rule:evenodd;stroke:none"
         id="rect5881"
         width="112"
         height="112"
         x="8"
         y="8"
         ry="23.784994" />
      <path
         inkscape:connector-curvature="0"
         style="fill:#ffffff;fill-opacity:1;fill-rule:evenodd;stroke:#ffbabc;stroke-width:6.37500000000000000;stroke-linecap:butt;stroke-linejoin:miter;stroke-miterlimit:4;stroke-opacity:1;stroke-dasharray:none"
         d="m 64,104 0,-20 -40,0 0,-40 40,0 0,-20 40,40 -40,40 z"
         id="path5883"
         sodipodi:nodetypes="cccccccc" />
    </g>
    <g
       transform="matrix(0.7,0,0,0.7,915.7,-365.3)"
       id="g5885">
      <rect
         style="fill:#ff0000;fill-rule:evenodd;stroke:#ffffff;stroke-width:1px;stroke-linecap:butt;stroke-linejoin:miter;stroke-opacity:1;fill-opacity:1"
         id="rect5887"
         width="128"
         height="128"
         x="0"
         y="0"
         ry="23.784994" />
      <rect
         style="fill:url(#linearGradient5899);fill-opacity:1;fill-rule:evenodd;stroke:none"
         id="rect5889"
         width="112"
         height="112"
         x="8"
         y="8"
         ry="23.784994" />
      <path
         inkscape:connector-curvature="0"
         style="fill:#ffffff;fill-opacity:1;fill-rule:evenodd;stroke:#ffbabc;stroke-width:6.37500000000000000;stroke-linecap:butt;stroke-linejoin:miter;stroke-miterlimit:4;stroke-opacity:1;stroke-dasharray:none"
         d="m 104,64 -20,0 0,40 -40,0 0,-40 -20,0 40,-40 40,40 z"
         id="path5891"
         sodipodi:nodetypes="cccccccc" />
    </g>
    <g
       transform="translate(0.5,-0.5)"
       id="g5901">
      <rect
         style="fill:#ffee00;fill-rule:evenodd;stroke:#ffffff;stroke-width:1px;stroke-linecap:butt;stroke-linejoin:miter;stroke-opacity:1;fill-opacity:1"
         id="rect5903"
         width="128"
         height="128"
         x="0"
         y="0"
         ry="23.784994" />
      <rect
         style="fill:url(#linearGradient5965);fill-opacity:1;fill-rule:evenodd;stroke:none"
         id="rect5905"
         width="112"
         height="112"
         x="8"
         y="8"
         ry="23.784994" />
      <path
         inkscape:connector-curvature="0"
         style="fill:#ffffff;fill-opacity:1;fill-rule:evenodd;stroke:#ff0000;stroke-width:6.375;stroke-linecap:butt;stroke-linejoin:miter;stroke-miterlimit:4;stroke-opacity:1;stroke-dasharray:none"
         d="m 24,64 20,0 0,-40 40,0 0,40 20,0 -40,40 -40,-40 z"
         id="path5907"
         sodipodi:nodetypes="cccccccc" />
    </g>
    <g
       transform="translate(128.5,-0.5)"
       id="g5909">
      <rect
         style="fill:#ffee00;fill-rule:evenodd;stroke:#ffffff;stroke-width:1px;stroke-linecap:butt;stroke-linejoin:miter;stroke-opacity:1;fill-opacity:1"
         id="rect5911"
         width="128"
         height="128"
         x="0"
         y="0"
         ry="23.784994" />
      <rect
         style="fill:url(#linearGradient5967);fill-opacity:1;fill-rule:evenodd;stroke:none"
         id="rect5913"
         width="112"
         height="112"
         x="8"
         y="8"
         ry="23.784994" />
      <path
         inkscape:connector-curvature="0"
         style="fill:#ffffff;fill-opacity:1;fill-rule:evenodd;stroke:#ff0000;stroke-width:6.375;stroke-linecap:butt;stroke-linejoin:miter;stroke-miterlimit:4;stroke-opacity:1;stroke-dasharray:none"
         d="m 64,24 0,20 40,0 0,40 -40,0 0,20 L 24,64 64,24 z"
         id="path5915"
         sodipodi:nodetypes="cccccccc" />
    </g>
    <g
       transform="translate(256.5,-0.5)"
       id="g5917">
      <rect
         style="fill:#ffee00;fill-rule:evenodd;stroke:#ffffff;stroke-width:1px;stroke-linecap:butt;stroke-linejoin:miter;stroke-opacity:1;fill-opacity:1"
         id="rect5919"
         width="128"
         height="128"
         x="0"
         y="0"
         ry="23.784994" />
      <rect
         style="fill:url(#linearGradient5969);fill-opacity:1;fill-rule:evenodd;stroke:none"
         id="rect5921"
         width="112"
         height="112"
         x="8"
         y="8"
         ry="23.784994" />
      <path
         inkscape:connector-curvature="0"
         style="fill:#ffffff;fill-opacity:1;fill-rule:evenodd;stroke:#ff0000;stroke-width:6.375;stroke-linecap:butt;stroke-linejoin:miter;stroke-miterlimit:4;stroke-opacity:1;stroke-dasharray:none"
         d="m 64,104 0,-20 -40,0 0,-40 40,0 0,-20 40,40 -40,40 z"
         id="path5923"
         sodipodi:nodetypes="cccccccc" />
    </g>
    <g
       transform="translate(384.5,-0.5)"
       id="g5925">
      <rect
         style="fill:#ffee00;fill-rule:evenodd;stroke:#ffffff;stroke-width:1px;stroke-linecap:butt;stroke-linejoin:miter;stroke-opacity:1;fill-opacity:1"
         id="rect5927"
         width="128"
         height="128"
         x="0"
         y="0"
         ry="23.784994" />
      <rect
         style="fill:url(#linearGradient5971);fill-opacity:1;fill-rule:evenodd;stroke:none"
         id="rect5929"
         width="112"
         height="112"
         x="8"
         y="8"
         ry="23.784994" />
      <path
         inkscape:connector-curvature="0"
         style="fill:#ffffff;fill-opacity:1;fill-rule:evenodd;stroke:#ff0000;stroke-width:6.375;stroke-linecap:butt;stroke-linejoin:miter;stroke-miterlimit:4;stroke-opacity:1;stroke-dasharray:none"
         d="m 104,64 -20,0 0,40 -40,0 0,-40 -20,0 40,-40 40,40 z"
         id="path5931"
         sodipodi:nodetypes="cccccccc" />
    </g>
    <g
       id="g5933"
       transform="matrix(0.7,0,0,0.7,531.7,18.7)">
      <rect
         ry="23.784994"
         y="0"
         x="0"
         height="128"
         width="128"
         id="rect5935"
         style="fill:#ffee00;fill-rule:evenodd;stroke:#ffffff;stroke-width:1px;stroke-linecap:butt;stroke-linejoin:miter;stroke-opacity:1;fill-opacity:1" />
      <rect
         ry="23.784994"
         y="8"
         x="8"
         height="112"
         width="112"
         id="rect5937"
         style="fill:url(#linearGradient5973);fill-opacity:1;fill-rule:evenodd;stroke:none" />
      <path
         sodipodi:nodetypes="cccccccc"
         id="path5939"
         d="m 24,64 20,0 0,-40 40,0 0,40 20,0 -40,40 -40,-40 z"
         style="fill:#ffffff;fill-opacity:1;fill-rule:evenodd;stroke:#ff0000;stroke-width:6.375;stroke-linecap:butt;stroke-linejoin:miter;stroke-miterlimit:4;stroke-opacity:1;stroke-dasharray:none"
         inkscape:connector-curvature="0" />
    </g>
    <g
       id="g5941"
       transform="matrix(0.7,0,0,0.7,659.7,18.7)">
      <rect
         ry="23.784994"
         y="0"
         x="0"
         height="128"
         width="128"
         id="rect5943"
         style="fill:#ffee00;fill-rule:evenodd;stroke:#ffffff;stroke-width:1px;stroke-linecap:butt;stroke-linejoin:miter;stroke-opacity:1;fill-opacity:1" />
      <rect
         ry="23.784994"
         y="8"
         x="8"
         height="112"
         width="112"
         id="rect5945"
         style="fill:url(#linearGradient5975);fill-opacity:1;fill-rule:evenodd;stroke:none" />
      <path
         sodipodi:nodetypes="cccccccc"
         id="path5947"
         d="m 64,24 0,20 40,0 0,40 -40,0 0,20 L 24,64 64,24 z"
         style="fill:#ffffff;fill-opacity:1;fill-rule:evenodd;stroke:#ff0000;stroke-width:6.375;stroke-linecap:butt;stroke-linejoin:miter;stroke-miterlimit:4;stroke-opacity:1;stroke-dasharray:none"
         inkscape:connector-curvature="0" />
    </g>
    <g
       id="g5949"
       transform="matrix(0.7,0,0,0.7,787.7,18.7)">
      <rect
         ry="23.784994"
         y="0"
         x="0"
         height="128"
         width="128"
         id="rect5951"
         style="fill:#ffee00;fill-rule:evenodd;stroke:#ffffff;stroke-width:1px;stroke-linecap:butt;stroke-linejoin:miter;stroke-opacity:1;fill-opacity:1" />
      <rect
         ry="23.784994"
         y="8"
         x="8"
         height="112"
         width="112"
         id="rect5953"
         style="fill:url(#linearGradient5977);fill-opacity:1;fill-rule:evenodd;stroke:none" />
      <path
         sodipodi:nodetypes="cccccccc"
         id="path5955"
         d="m 64,104 0,-20 -40,0 0,-40 40,0 0,-20 40,40 -40,40 z"
         style="fill:#ffffff;fill-opacity:1;fill-rule:evenodd;stroke:#ff0000;stroke-width:6.375;stroke-linecap:butt;stroke-linejoin:miter;stroke-miterlimit:4;stroke-opacity:1;stroke-dasharray:none"
         inkscape:connector-curvature="0" />
    </g>
    <g
       id="g5957"
       transform="matrix(0.7,0,0,0.7,915.7,18.7)">
      <rect
         ry="23.784994"
         y="0"
         x="0"
         height="128"
         width="128"
         id="rect5959"
         style="fill:#ffee00;fill-rule:evenodd;stroke:#ffffff;stroke-width:1px;stroke-linecap:butt;stroke-linejoin:miter;stroke-opacity:1;fill-opacity:1" />
      <rect
         ry="23.784994"
         y="8"
         x="8"
         height="112"
         width="112"
         id="rect5961"
         style="fill:url(#linearGradient5979);fill-opacity:1;fill-rule:evenodd;stroke:none" />
      <path
         sodipodi:nodetypes="cccccccc"
         id="path5963"
         d="m 104,64 -20,0 0,40 -40,0 0,-40 -20,0 40,-40 40,40 z"
         style="fill:#ffffff;fill-opacity:1;fill-rule:evenodd;stroke:#ff0000;stroke-width:6.375;stroke-linecap:butt;stroke-linejoin:miter;stroke-miterlimit:4;stroke-opacity:1;stroke-dasharray:none"
         inkscape:connector-curvature="0" />
    </g>
    <g
       transform="translate(0.5,-256.5)"
       id="g6047">
      <rect
         style="fill:#0000ff;fill-rule:evenodd;stroke:#ffffff;stroke-width:1px;stroke-linecap:butt;stroke-linejoin:miter;stroke-opacity:1"
         id="rect6049"
         width="128"
         height="128"
         x="0"
         y="0"
         ry="23.784994" />
      <rect
         style="fill:url(#linearGradient6111);fill-opacity:1;fill-rule:evenodd;stroke:none"
         id="rect6051"
         width="112"
         height="112"
         x="8"
         y="8"
         ry="23.784994" />
      <path
         inkscape:connector-curvature="0"
         style="fill:#ffffff;fill-opacity:1;fill-rule:evenodd;stroke:#ff0000;stroke-width:6.375;stroke-linecap:butt;stroke-linejoin:miter;stroke-miterlimit:4;stroke-opacity:1;stroke-dasharray:none"
         d="m 24,64 20,0 0,-40 40,0 0,40 20,0 -40,40 -40,-40 z"
         id="path6053"
         sodipodi:nodetypes="cccccccc" />
    </g>
    <g
       transform="translate(128.5,-256.5)"
       id="g6055">
      <rect
         style="fill:#0000ff;fill-rule:evenodd;stroke:#ffffff;stroke-width:1px;stroke-linecap:butt;stroke-linejoin:miter;stroke-opacity:1"
         id="rect6057"
         width="128"
         height="128"
         x="0"
         y="0"
         ry="23.784994" />
      <rect
         style="fill:url(#linearGradient6113);fill-opacity:1;fill-rule:evenodd;stroke:none"
         id="rect6059"
         width="112"
         height="112"
         x="8"
         y="8"
         ry="23.784994" />
      <path
         inkscape:connector-curvature="0"
         style="fill:#ffffff;fill-opacity:1;fill-rule:evenodd;stroke:#ff0000;stroke-width:6.375;stroke-linecap:butt;stroke-linejoin:miter;stroke-miterlimit:4;stroke-opacity:1;stroke-dasharray:none"
         d="m 64,24 0,20 40,0 0,40 -40,0 0,20 L 24,64 64,24 z"
         id="path6061"
         sodipodi:nodetypes="cccccccc" />
    </g>
    <g
       transform="translate(256.5,-256.5)"
       id="g6063">
      <rect
         style="fill:#0000ff;fill-rule:evenodd;stroke:#ffffff;stroke-width:1px;stroke-linecap:butt;stroke-linejoin:miter;stroke-opacity:1"
         id="rect6065"
         width="128"
         height="128"
         x="0"
         y="0"
         ry="23.784994" />
      <rect
         style="fill:url(#linearGradient6115);fill-opacity:1;fill-rule:evenodd;stroke:none"
         id="rect6067"
         width="112"
         height="112"
         x="8"
         y="8"
         ry="23.784994" />
      <path
         inkscape:connector-curvature="0"
         style="fill:#ffffff;fill-opacity:1;fill-rule:evenodd;stroke:#ff0000;stroke-width:6.375;stroke-linecap:butt;stroke-linejoin:miter;stroke-miterlimit:4;stroke-opacity:1;stroke-dasharray:none"
         d="m 64,104 0,-20 -40,0 0,-40 40,0 0,-20 40,40 -40,40 z"
         id="path6069"
         sodipodi:nodetypes="cccccccc" />
    </g>
    <g
       transform="translate(384.5,-256.5)"
       id="g6071">
      <rect
         style="fill:#0000ff;fill-rule:evenodd;stroke:#ffffff;stroke-width:1px;stroke-linecap:butt;stroke-linejoin:miter;stroke-opacity:1"
         id="rect6073"
         width="128"
         height="128"
         x="0"
         y="0"
         ry="23.784994" />
      <rect
         style="fill:url(#linearGradient6117);fill-opacity:1;fill-rule:evenodd;stroke:none"
         id="rect6075"
         width="112"
         height="112"
         x="8"
         y="8"
         ry="23.784994" />
      <path
         inkscape:connector-curvature="0"
         style="fill:#ffffff;fill-opacity:1;fill-rule:evenodd;stroke:#ff0000;stroke-width:6.375;stroke-linecap:butt;stroke-linejoin:miter;stroke-miterlimit:4;stroke-opacity:1;stroke-dasharray:none"
         d="m 104,64 -20,0 0,40 -40,0 0,-40 -20,0 40,-40 40,40 z"
         id="path6077"
         sodipodi:nodetypes="cccccccc" />
    </g>
    <g
       id="g6079"
       transform="matrix(0.7,0,0,0.7,531.7,-237.3)">
      <rect
         ry="23.784994"
         y="0"
         x="0"
         height="128"
         width="128"
         id="rect6081"
         style="fill:#0000ff;fill-rule:evenodd;stroke:#ffffff;stroke-width:1px;stroke-linecap:butt;stroke-linejoin:miter;stroke-opacity:1" />
      <rect
         ry="23.784994"
         y="8"
         x="8"
         height="112"
         width="112"
         id="rect6083"
         style="fill:url(#linearGradient6119);fill-opacity:1;fill-rule:evenodd;stroke:none" />
      <path
         sodipodi:nodetypes="cccccccc"
         id="path6085"
         d="m 24,64 20,0 0,-40 40,0 0,40 20,0 -40,40 -40,-40 z"
         style="fill:#ffffff;fill-opacity:1;fill-rule:evenodd;stroke:#ff0000;stroke-width:6.375;stroke-linecap:butt;stroke-linejoin:miter;stroke-miterlimit:4;stroke-opacity:1;stroke-dasharray:none"
         inkscape:connector-curvature="0" />
    </g>
    <g
       id="g6087"
       transform="matrix(0.7,0,0,0.7,659.7,-237.3)">
      <rect
         ry="23.784994"
         y="0"
         x="0"
         height="128"
         width="128"
         id="rect6089"
         style="fill:#0000ff;fill-rule:evenodd;stroke:#ffffff;stroke-width:1px;stroke-linecap:butt;stroke-linejoin:miter;stroke-opacity:1" />
      <rect
         ry="23.784994"
         y="8"
         x="8"
         height="112"
         width="112"
         id="rect6091"
         style="fill:url(#linearGradient6121);fill-opacity:1;fill-rule:evenodd;stroke:none" />
      <path
         sodipodi:nodetypes="cccccccc"
         id="path6093"
         d="m 64,24 0,20 40,0 0,40 -40,0 0,20 L 24,64 64,24 z"
         style="fill:#ffffff;fill-opacity:1;fill-rule:evenodd;stroke:#ff0000;stroke-width:6.375;stroke-linecap:butt;stroke-linejoin:miter;stroke-miterlimit:4;stroke-opacity:1;stroke-dasharray:none"
         inkscape:connector-curvature="0" />
    </g>
    <g
       id="g6095"
       transform="matrix(0.7,0,0,0.7,787.7,-237.3)">
      <rect
         ry="23.784994"
         y="0"
         x="0"
         height="128"
         width="128"
         id="rect6097"
         style="fill:#0000ff;fill-rule:evenodd;stroke:#ffffff;stroke-width:1px;stroke-linecap:butt;stroke-linejoin:miter;stroke-opacity:1" />
      <rect
         ry="23.784994"
         y="8"
         x="8"
         height="112"
         width="112"
         id="rect6099"
         style="fill:url(#linearGradient6123);fill-opacity:1;fill-rule:evenodd;stroke:none" />
      <path
         sodipodi:nodetypes="cccccccc"
         id="path6101"
         d="m 64,104 0,-20 -40,0 0,-40 40,0 0,-20 40,40 -40,40 z"
         style="fill:#ffffff;fill-opacity:1;fill-rule:evenodd;stroke:#ff0000;stroke-width:6.375;stroke-linecap:butt;stroke-linejoin:miter;stroke-miterlimit:4;stroke-opacity:1;stroke-dasharray:none"
         inkscape:connector-curvature="0" />
    </g>
    <g
       id="g6103"
       transform="matrix(0.7,0,0,0.7,915.7,-237.3)">
      <rect
         ry="23.784994"
         y="0"
         x="0"
         height="128"
         width="128"
         id="rect6105"
         style="fill:#0000ff;fill-rule:evenodd;stroke:#ffffff;stroke-width:1px;stroke-linecap:butt;stroke-linejoin:miter;stroke-opacity:1" />
      <rect
         ry="23.784994"
         y="8"
         x="8"
         height="112"
         width="112"
         id="rect6107"
         style="fill:url(#linearGradient6125);fill-opacity:1;fill-rule:evenodd;stroke:none" />
      <path
         sodipodi:nodetypes="cccccccc"
         id="path6109"
         d="m 104,64 -20,0 0,40 -40,0 0,-40 -20,0 40,-40 40,40 z"
         style="fill:#ffffff;fill-opacity:1;fill-rule:evenodd;stroke:#ff0000;stroke-width:6.375;stroke-linecap:butt;stroke-linejoin:miter;stroke-miterlimit:4;stroke-opacity:1;stroke-dasharray:none"
         inkscape:connector-curvature="0" />
    </g>
    <g
       id="g6127"
       transform="translate(0.5,-128.5)">
      <rect
         ry="23.784994"
         y="0"
         x="0"
         height="128"
         width="128"
         id="rect6129"
         style="fill:#1ce31c;fill-rule:evenodd;stroke:#ffffff;stroke-width:1px;stroke-linecap:butt;stroke-linejoin:miter;stroke-opacity:1;fill-opacity:1" />
      <rect
         ry="23.784994"
         y="8"
         x="8"
         height="112"
         width="112"
         id="rect6131"
         style="fill:url(#linearGradient6191);fill-opacity:1;fill-rule:evenodd;stroke:none" />
      <path
         sodipodi:nodetypes="cccccccc"
         id="path6133"
         d="m 24,64 20,0 0,-40 40,0 0,40 20,0 -40,40 -40,-40 z"
         style="fill:#ffffff;fill-opacity:1;fill-rule:evenodd;stroke:#ff0000;stroke-width:6.375;stroke-linecap:butt;stroke-linejoin:miter;stroke-miterlimit:4;stroke-opacity:1;stroke-dasharray:none"
         inkscape:connector-curvature="0" />
    </g>
    <g
       id="g6135"
       transform="translate(128.5,-128.5)">
      <rect
         ry="23.784994"
         y="0"
         x="0"
         height="128"
         width="128"
         id="rect6137"
         style="fill:#1ce31c;fill-rule:evenodd;stroke:#ffffff;stroke-width:1px;stroke-linecap:butt;stroke-linejoin:miter;stroke-opacity:1;fill-opacity:1" />
      <rect
         ry="23.784994"
         y="8"
         x="8"
         height="112"
         width="112"
         id="rect6139"
         style="fill:url(#linearGradient6193);fill-opacity:1;fill-rule:evenodd;stroke:none" />
      <path
         sodipodi:nodetypes="cccccccc"
         id="path6141"
         d="m 64,24 0,20 40,0 0,40 -40,0 0,20 L 24,64 64,24 z"
         style="fill:#ffffff;fill-opacity:1;fill-rule:evenodd;stroke:#ff0000;stroke-width:6.375;stroke-linecap:butt;stroke-linejoin:miter;stroke-miterlimit:4;stroke-opacity:1;stroke-dasharray:none"
         inkscape:connector-curvature="0" />
    </g>
    <g
       id="g6143"
       transform="translate(256.5,-128.5)">
      <rect
         ry="23.784994"
         y="0"
         x="0"
         height="128"
         width="128"
         id="rect6145"
         style="fill:#1ce31c;fill-rule:evenodd;stroke:#ffffff;stroke-width:1px;stroke-linecap:butt;stroke-linejoin:miter;stroke-opacity:1;fill-opacity:1" />
      <rect
         ry="23.784994"
         y="8"
         x="8"
         height="112"
         width="112"
         id="rect6147"
         style="fill:url(#linearGradient6195);fill-opacity:1;fill-rule:evenodd;stroke:none" />
      <path
         sodipodi:nodetypes="cccccccc"
         id="path6149"
         d="m 64,104 0,-20 -40,0 0,-40 40,0 0,-20 40,40 -40,40 z"
         style="fill:#ffffff;fill-opacity:1;fill-rule:evenodd;stroke:#ff0000;stroke-width:6.375;stroke-linecap:butt;stroke-linejoin:miter;stroke-miterlimit:4;stroke-opacity:1;stroke-dasharray:none"
         inkscape:connector-curvature="0" />
    </g>
    <g
       id="g6151"
       transform="translate(384.5,-128.5)">
      <rect
         ry="23.784994"
         y="0"
         x="0"
         height="128"
         width="128"
         id="rect6153"
         style="fill:#1ce31c;fill-rule:evenodd;stroke:#ffffff;stroke-width:1px;stroke-linecap:butt;stroke-linejoin:miter;stroke-opacity:1;fill-opacity:1" />
      <rect
         ry="23.784994"
         y="8"
         x="8"
         height="112"
         width="112"
         id="rect6155"
         style="fill:url(#linearGradient6197);fill-opacity:1;fill-rule:evenodd;stroke:none" />
      <path
         sodipodi:nodetypes="cccccccc"
         id="path6157"
         d="m 104,64 -20,0 0,40 -40,0 0,-40 -20,0 40,-40 40,40 z"
         style="fill:#ffffff;fill-opacity:1;fill-rule:evenodd;stroke:#ff0000;stroke-width:6.375;stroke-linecap:butt;stroke-linejoin:miter;stroke-miterlimit:4;stroke-opacity:1;stroke-dasharray:none"
         inkscape:connector-curvature="0" />
    </g>
    <g
       transform="matrix(0.7,0,0,0.7,531.7,-109.3)"
       id="g6159">
      <rect
         style="fill:#1ce31c;fill-rule:evenodd;stroke:#ffffff;stroke-width:1px;stroke-linecap:butt;stroke-linejoin:miter;stroke-opacity:1;fill-opacity:1"
         id="rect6161"
         width="128"
         height="128"
         x="0"
         y="0"
         ry="23.784994" />
      <rect
         style="fill:url(#linearGradient6199);fill-opacity:1;fill-rule:evenodd;stroke:none"
         id="rect6163"
         width="112"
         height="112"
         x="8"
         y="8"
         ry="23.784994" />
      <path
         inkscape:connector-curvature="0"
         style="fill:#ffffff;fill-opacity:1;fill-rule:evenodd;stroke:#ff0000;stroke-width:6.375;stroke-linecap:butt;stroke-linejoin:miter;stroke-miterlimit:4;stroke-opacity:1;stroke-dasharray:none"
         d="m 24,64 20,0 0,-40 40,0 0,40 20,0 -40,40 -40,-40 z"
         id="path6165"
         sodipodi:nodetypes="cccccccc" />
    </g>
    <g
       transform="matrix(0.7,0,0,0.7,659.7,-109.3)"
       id="g6167">
      <rect
         style="fill:#1ce31c;fill-rule:evenodd;stroke:#ffffff;stroke-width:1px;stroke-linecap:butt;stroke-linejoin:miter;stroke-opacity:1;fill-opacity:1"
         id="rect6169"
         width="128"
         height="128"
         x="0"
         y="0"
         ry="23.784994" />
      <rect
         style="fill:url(#linearGradient6201);fill-opacity:1;fill-rule:evenodd;stroke:none"
         id="rect6171"
         width="112"
         height="112"
         x="8"
         y="8"
         ry="23.784994" />
      <path
         inkscape:connector-curvature="0"
         style="fill:#ffffff;fill-opacity:1;fill-rule:evenodd;stroke:#ff0000;stroke-width:6.375;stroke-linecap:butt;stroke-linejoin:miter;stroke-miterlimit:4;stroke-opacity:1;stroke-dasharray:none"
         d="m 64,24 0,20 40,0 0,40 -40,0 0,20 L 24,64 64,24 z"
         id="path6173"
         sodipodi:nodetypes="cccccccc" />
    </g>
    <g
       transform="matrix(0.7,0,0,0.7,787.7,-109.3)"
       id="g6175">
      <rect
         style="fill:#1ce31c;fill-rule:evenodd;stroke:#ffffff;stroke-width:1px;stroke-linecap:butt;stroke-linejoin:miter;stroke-opacity:1;fill-opacity:1"
         id="rect6177"
         width="128"
         height="128"
         x="0"
         y="0"
         ry="23.784994" />
      <rect
         style="fill:url(#linearGradient6203);fill-opacity:1;fill-rule:evenodd;stroke:none"
         id="rect6179"
         width="112"
         height="112"
         x="8"
         y="8"
         ry="23.784994" />
      <path
         inkscape:connector-curvature="0"
         style="fill:#ffffff;fill-opacity:1;fill-rule:evenodd;stroke:#ff0000;stroke-width:6.375;stroke-linecap:butt;stroke-linejoin:miter;stroke-miterlimit:4;stroke-opacity:1;stroke-dasharray:none"
         d="m 64,104 0,-20 -40,0 0,-40 40,0 0,-20 40,40 -40,40 z"
         id="path6181"
         sodipodi:nodetypes="cccccccc" />
    </g>
    <g
       transform="matrix(0.7,0,0,0.7,915.7,-109.3)"
       id="g6183">
      <rect
         style="fill:#1ce31c;fill-rule:evenodd;stroke:#ffffff;stroke-width:1px;stroke-linecap:butt;stroke-linejoin:miter;stroke-opacity:1;fill-opacity:1"
         id="rect6185"
         width="128"
         height="128"
         x="0"
         y="0"
         ry="23.784994" />
      <rect
         style="fill:url(#linearGradient6205);fill-opacity:1;fill-rule:evenodd;stroke:none"
         id="rect6187"
         width="112"
         height="112"
         x="8"
         y="8"
         ry="23.784994" />
      <path
         inkscape:connector-curvature="0"
         style="fill:#ffffff;fill-opacity:1;fill-rule:evenodd;stroke:#ff0000;stroke-width:6.375;stroke-linecap:butt;stroke-linejoin:miter;stroke-miterlimit:4;stroke-opacity:1;stroke-dasharray:none"
         d="m 104,64 -20,0 0,40 -40,0 0,-40 -20,0 40,-40 40,40 z"
         id="path6189"
         sodipodi:nodetypes="cccccccc" />
    </g>
  </g>
</svg>
