<?xml version="1.0" encoding="UTF-8" standalone="no"?>
<!-- Created with Inkscape (http://www.inkscape.org/) -->
<svg
   xmlns:dc="http://purl.org/dc/elements/1.1/"
   xmlns:cc="http://creativecommons.org/ns#"
   xmlns:rdf="http://www.w3.org/1999/02/22-rdf-syntax-ns#"
   xmlns:svg="http://www.w3.org/2000/svg"
   xmlns="http://www.w3.org/2000/svg"
   xmlns:xlink="http://www.w3.org/1999/xlink"
   xmlns:sodipodi="http://sodipodi.sourceforge.net/DTD/sodipodi-0.dtd"
   xmlns:inkscape="http://www.inkscape.org/namespaces/inkscape"
   width="480"
   height="800"
   id="svg2"
   sodipodi:version="0.32"
   inkscape:version="0.46"
   version="1.0"
   sodipodi:docname="Background.svg"
   inkscape:output_extension="org.inkscape.output.svg.inkscape"
   inkscape:export-filename="C:\Documents and Settings\Edward\My Documents\Android\ShokoRocket\ShokoRocket\assets\Bitmaps\Game\Background.png"
   inkscape:export-xdpi="90"
   inkscape:export-ydpi="90">
  <defs
     id="defs4">
    <linearGradient
       id="linearGradient6896">
      <stop
         id="stop6898"
         offset="0"
         style="stop-color:#87a36a;stop-opacity:1;" />
      <stop
         id="stop6900"
         offset="1"
         style="stop-color:#5e4b4b;stop-opacity:1;" />
    </linearGradient>
    <linearGradient
       id="linearGradient6831">
      <stop
         style="stop-color:#000000;stop-opacity:0.37168142;"
         offset="0"
         id="stop6833" />
      <stop
         style="stop-color:#000000;stop-opacity:0;"
         offset="1"
         id="stop6835" />
    </linearGradient>
    <linearGradient
       id="linearGradient3172">
      <stop
         style="stop-color:#000071;stop-opacity:1;"
         offset="0"
         id="stop3174" />
      <stop
         style="stop-color:#00c0f6;stop-opacity:1;"
         offset="1"
         id="stop3176" />
    </linearGradient>
    <linearGradient
       id="linearGradient3162">
      <stop
         style="stop-color:#38a300;stop-opacity:1;"
         offset="0"
         id="stop3164" />
      <stop
         style="stop-color:#87a96a;stop-opacity:1;"
         offset="1"
         id="stop3166" />
    </linearGradient>
    <inkscape:perspective
       sodipodi:type="inkscape:persp3d"
       inkscape:vp_x="0 : 526.18109 : 1"
       inkscape:vp_y="0 : 1000 : 0"
       inkscape:vp_z="744.09448 : 526.18109 : 1"
       inkscape:persp3d-origin="372.04724 : 350.78739 : 1"
       id="perspective10" />
    <linearGradient
       inkscape:collect="always"
       xlink:href="#linearGradient3162"
       id="linearGradient3168"
       x1="224"
       y1="800"
       x2="224"
       y2="448"
       gradientUnits="userSpaceOnUse"
       gradientTransform="matrix(1,0,0,0.7692307,0,184.61539)" />
    <linearGradient
       inkscape:collect="always"
       xlink:href="#linearGradient3172"
       id="linearGradient3178"
       x1="224"
       y1="32"
       x2="224"
       y2="544"
       gradientUnits="userSpaceOnUse" />
    <linearGradient
       y2="358.61218"
       x2="220.07143"
       y1="358.61218"
       x1="123.07143"
       gradientUnits="userSpaceOnUse"
       id="linearGradient7910"
       xlink:href="#linearGradient7837"
       inkscape:collect="always" />
    <linearGradient
       y2="426.61218"
       x2="219.57143"
       y1="426.61218"
       x1="123.57143"
       gradientUnits="userSpaceOnUse"
       id="linearGradient7908"
       xlink:href="#linearGradient7837"
       inkscape:collect="always" />
    <linearGradient
       y2="392.61218"
       x2="235.57143"
       y1="416.61218"
       x1="235.57143"
       gradientUnits="userSpaceOnUse"
       id="linearGradient7906"
       xlink:href="#linearGradient7837"
       inkscape:collect="always" />
    <linearGradient
       gradientUnits="userSpaceOnUse"
       y2="358.61218"
       x2="220.07143"
       y1="358.61218"
       x1="123.07143"
       id="linearGradient7873"
       xlink:href="#linearGradient7837"
       inkscape:collect="always" />
    <linearGradient
       gradientUnits="userSpaceOnUse"
       y2="426.61218"
       x2="219.57143"
       y1="426.61218"
       x1="123.57143"
       id="linearGradient7857"
       xlink:href="#linearGradient7837"
       inkscape:collect="always" />
    <linearGradient
       y2="392.61218"
       x2="235.57143"
       y1="416.61218"
       x1="235.57143"
       gradientUnits="userSpaceOnUse"
       id="linearGradient7847"
       xlink:href="#linearGradient7837"
       inkscape:collect="always" />
    <linearGradient
       gradientUnits="userSpaceOnUse"
       y2="392.61218"
       x2="235.57143"
       y1="416.61218"
       x1="235.57143"
       id="linearGradient7843"
       xlink:href="#linearGradient7837"
       inkscape:collect="always" />
    <inkscape:perspective
       sodipodi:type="inkscape:persp3d"
       inkscape:vp_x="0 : 526.18109 : 1"
       inkscape:vp_y="0 : 1000 : 0"
       inkscape:vp_z="744.09448 : 526.18109 : 1"
       inkscape:persp3d-origin="372.04724 : 350.78739 : 1"
       id="perspective7011" />
    <inkscape:perspective
       id="perspective6800"
       inkscape:persp3d-origin="372.04724 : 350.78739 : 1"
       inkscape:vp_z="744.09448 : 526.18109 : 1"
       inkscape:vp_y="0 : 1000 : 0"
       inkscape:vp_x="0 : 526.18109 : 1"
       sodipodi:type="inkscape:persp3d" />
    <linearGradient
       id="linearGradient3215">
      <stop
         id="stop3217"
         offset="0"
         style="stop-color:#878787;stop-opacity:1;" />
      <stop
         id="stop3219"
         offset="1"
         style="stop-color:#ffffff;stop-opacity:1;" />
    </linearGradient>
    <linearGradient
       id="linearGradient3225">
      <stop
         id="stop3227"
         offset="0"
         style="stop-color:#ffffff;stop-opacity:0;" />
      <stop
         id="stop3229"
         offset="1"
         style="stop-color:#ffffff;stop-opacity:0.72173911;" />
    </linearGradient>
    <linearGradient
       id="linearGradient3934">
      <stop
         style="stop-color:#878787;stop-opacity:1;"
         offset="0"
         id="stop3936" />
      <stop
         style="stop-color:#ffffff;stop-opacity:1;"
         offset="1"
         id="stop3938" />
    </linearGradient>
    <linearGradient
       id="linearGradient3940">
      <stop
         style="stop-color:#878787;stop-opacity:1;"
         offset="0"
         id="stop3942" />
      <stop
         style="stop-color:#ffffff;stop-opacity:1;"
         offset="1"
         id="stop3944" />
    </linearGradient>
    <linearGradient
       id="linearGradient7837">
      <stop
         id="stop7839"
         offset="0"
         style="stop-color:#ffffff;stop-opacity:0.66371679;" />
      <stop
         id="stop7841"
         offset="1"
         style="stop-color:#ffffa3;stop-opacity:0;" />
    </linearGradient>
    <linearGradient
       inkscape:collect="always"
       xlink:href="#linearGradient7837"
       id="linearGradient6755"
       gradientUnits="userSpaceOnUse"
       x1="235.57143"
       y1="416.61218"
       x2="235.57143"
       y2="392.61218" />
    <linearGradient
       inkscape:collect="always"
       xlink:href="#linearGradient7837"
       id="linearGradient6757"
       gradientUnits="userSpaceOnUse"
       x1="123.57143"
       y1="426.61218"
       x2="219.57143"
       y2="426.61218" />
    <linearGradient
       inkscape:collect="always"
       xlink:href="#linearGradient7837"
       id="linearGradient6759"
       gradientUnits="userSpaceOnUse"
       x1="123.07143"
       y1="358.61218"
       x2="220.07143"
       y2="358.61218" />
    <filter
       inkscape:collect="always"
       id="filter7063"
       x="-0.22143448"
       width="1.442869"
       y="-0.10669079"
       height="1.2133816">
      <feGaussianBlur
         inkscape:collect="always"
         stdDeviation="9.0159273"
         id="feGaussianBlur7065" />
    </filter>
    <filter
       inkscape:collect="always"
       id="filter7147"
       x="-0.19106699"
       width="1.382134"
       y="-0.096234964"
       height="1.1924699">
      <feGaussianBlur
         inkscape:collect="always"
         stdDeviation="10.265063"
         id="feGaussianBlur7149" />
    </filter>
  </defs>
  <sodipodi:namedview
     id="base"
     pagecolor="#ffffff"
     bordercolor="#666666"
     borderopacity="1.0"
     gridtolerance="10000"
     guidetolerance="10"
     objecttolerance="10"
     inkscape:pageopacity="0.0"
     inkscape:pageshadow="2"
     inkscape:zoom="0.5"
     inkscape:cx="162.53656"
     inkscape:cy="336.32537"
     inkscape:document-units="px"
     inkscape:current-layer="layer1"
     showgrid="true"
     showguides="true"
     inkscape:guide-bbox="true"
     inkscape:window-width="1180"
     inkscape:window-height="742"
     inkscape:window-x="96"
     inkscape:window-y="-4">
    <inkscape:grid
       type="xygrid"
       id="grid2387"
       visible="true"
       enabled="true"
       spacingx="4px"
       spacingy="4px"
       empspacing="8" />
    <sodipodi:guide
       orientation="-0.70710678,0.70710678"
       position="-380,572.85714"
       id="guide6788" />
  </sodipodi:namedview>
  <metadata
     id="metadata7">
    <rdf:RDF>
      <cc:Work
         rdf:about="">
        <dc:format>image/svg+xml</dc:format>
        <dc:type
           rdf:resource="http://purl.org/dc/dcmitype/StillImage" />
      </cc:Work>
    </rdf:RDF>
  </metadata>
  <g
     inkscape:label="Layer 1"
     inkscape:groupmode="layer"
     id="layer1"
     style="display:inline">
    <rect
       style="opacity:1;fill:url(#linearGradient3178);fill-opacity:1;stroke:none;stroke-width:2;stroke-linecap:round;stroke-linejoin:round;stroke-miterlimit:4;stroke-dasharray:none;stroke-opacity:1"
       id="rect3170"
       width="480"
       height="800"
       x="0"
       y="0" />
    <g
       transform="matrix(0.5404637,0,0,0.5404637,-196.25548,230.53065)"
       id="g6791">
      <path
         style="opacity:1;fill:#008fe4;fill-opacity:1;stroke:none;stroke-width:2;stroke-linecap:round;stroke-linejoin:round;stroke-miterlimit:4;stroke-dasharray:none;stroke-opacity:1"
         d="M 896,32 C 843.008,32 800,75.008 800,128 C 800,130.98272 800.13963,133.93018 800.40625,136.84375 C 790.89776,131.24376 779.82605,128 768,128 C 732.672,128 704,156.672 704,192 C 704,227.328 732.672,256 768,256 L 1024,256 C 1076.992,256 1120,212.992 1120,160 C 1120,107.008 1076.992,64 1024,64 C 1006.8912,64 990.82227,68.48918 976.90625,76.34375 C 959.84187,49.692159 929.97316,32 896,32 z"
         id="path6793" />
      <path
         style="fill:#fffffa;fill-opacity:1;stroke:none;stroke-width:2;stroke-linecap:round;stroke-linejoin:round;stroke-miterlimit:4;stroke-opacity:1"
         d="M 896,47.125 C 851.18916,47.125 815.125,83.189161 815.125,128 C 815.125,130.51083 815.24281,132.99967 815.46875,135.46875 C 815.98939,141.12341 826.78706,154.77987 821.98949,157.81789 C 817.19192,160.85591 797.6079,152.76334 792.71875,149.875 C 785.43277,145.58395 777.06111,143.125 768,143.125 C 740.85316,143.125 719.125,164.85316 719.125,192 C 719.125,219.14684 740.85316,240.875 768,240.875 L 1024,240.875 C 1068.8108,240.875 1104.875,204.81084 1104.875,160 C 1104.875,115.18916 1068.8108,79.125 1024,79.125 C 1016.7681,79.125 1002.3841,81.613679 987.20841,91.20842 C 972.03278,100.80316 956.06557,117.50397 950.20315,120.81263 C 946.71238,122.78277 943.12229,120.49245 950.20315,113.41158 C 965.00525,98.609472 966.35313,87.872974 964.1875,84.5 C 949.80502,62.037068 924.72362,47.125 896,47.125 z"
         id="path6795"
         sodipodi:nodetypes="cssscssccssssscc" />
    </g>
    <path
       style="fill:url(#linearGradient3168);fill-opacity:1;stroke:none;stroke-width:2;stroke-linecap:round;stroke-linejoin:round;stroke-miterlimit:4;stroke-opacity:1"
       d="M 0,421.09375 C 0,420.96041 0,416 0,416 C -4.5378818,416 -3.8344818,418.05159 0,421.09375 z"
       id="path6894" />
    <flowRoot
       style="font-size:40px;font-style:normal;font-weight:normal;fill:#000000;fill-opacity:1;stroke:none;stroke-width:1px;stroke-linecap:butt;stroke-linejoin:miter;stroke-opacity:1;font-family:Bitstream Vera Sans"
       id="flowRoot7951"
       xml:space="preserve"
       transform="translate(164.63806,-239.10218)"><flowRegion
         id="flowRegion7953"><rect
           y="81.08474"
           x="48.790367"
           height="146.01755"
           width="134.70384"
           id="rect7955" /></flowRegion><flowPara
         id="flowPara7957">SHOKOO</flowPara></flowRoot>    <g
       id="layer2"
       inkscape:label="Base"
       transform="translate(276.20949,105.51)" />
    <path
       transform="matrix(0.7573729,-0.1648835,0.1648835,0.7573729,68.975591,26.080679)"
       style="fill:#ffff00;fill-opacity:1;stroke:none;stroke-width:6;stroke-linecap:round;stroke-linejoin:round;stroke-miterlimit:4;stroke-opacity:1"
       d="M 96.003712,86.811594 C 94.869018,87.946294 38.596535,45.993198 37.081886,46.523196 C 35.567238,47.053195 32.698159,93.987863 31.10355,93.808193 C 29.508942,93.628524 25.17255,45.881995 23.813812,45.028243 C 22.455075,44.174492 -14.075933,64.01963 -14.929684,62.660893 C -15.783436,61.302156 16.889774,35.317367 16.710105,33.722758 C 16.530435,32.128149 -11.245281,18.567925 -10.715283,17.053276 C -10.185284,15.538628 19.985306,22.254694 21.12,21.12 C 22.254693,19.985307 19.094003,-3.0120505 20.608652,-3.5420495 C 22.123301,-4.0720475 32.128148,16.530435 33.722757,16.710105 C 35.317366,16.889774 54.718285,-7.1721138 56.077023,-6.3183625 C 57.43576,-5.4646112 44.174492,22.455075 45.028243,23.813812 C 45.881995,25.172549 92.772112,26.45701 92.951781,28.051619 C 93.131451,29.646228 47.053195,35.567237 46.523196,37.081886 C 45.993198,38.596535 97.138405,85.676904 96.003712,86.811594 z"
       id="path6841"
       sodipodi:nodetypes="csssssssssssssc" />
    <path
       transform="matrix(0.5419981,5.0638347e-2,-5.0638347e-2,0.5419981,411.72578,31.920326)"
       style="fill:#ffff00;fill-opacity:1;stroke:none;stroke-width:6;stroke-linecap:round;stroke-linejoin:round;stroke-miterlimit:4;stroke-opacity:1"
       d="M 66.564107,75.109078 C 65.429413,76.243772 38.596535,45.993198 37.081886,46.523196 C 35.567238,47.053195 18.995708,102.0223 17.401099,101.84263 C 15.806491,101.66296 25.17255,45.881995 23.813812,45.028243 C 22.455075,44.174492 -48.958375,94.720831 -49.812126,93.362094 C -50.665878,92.003357 16.889774,35.317367 16.710105,33.722758 C 16.530435,32.128149 -41.86159,27.663518 -41.331592,26.148869 C -40.801593,24.634221 19.985306,22.254694 21.12,21.12 C 22.254693,19.985307 12.265906,-15.370703 13.780555,-15.900702 C 15.295204,-16.4307 32.128148,16.530435 33.722757,16.710105 C 35.317366,16.889774 54.718285,-7.1721138 56.077023,-6.3183625 C 57.43576,-5.4646112 44.174492,22.455075 45.028243,23.813812 C 45.881995,25.172549 76.790611,25.338457 76.97028,26.933066 C 77.14995,28.527675 47.053195,35.567237 46.523196,37.081886 C 45.993198,38.596535 67.6988,73.974385 66.564107,75.109078 z"
       id="path6843"
       sodipodi:nodetypes="csssssssssssssc" />
    <g
       id="g6942"
       transform="translate(-738.71875,223.9375)">
      <path
         id="path6926"
         d="M 848,160 C 827.09038,160 809.29542,173.39333 802.71875,192.0625 C 801.81346,192.02445 800.9146,192 800,192 C 764.672,192 736,220.672 736,256 C 736,291.328 764.672,320 800,320 L 940,320 L 940,319.8125 C 941.32031,319.9217 942.65166,320 944,320 C 970.496,320 992.00002,298.496 992,272 C 992,249.87159 977.00423,231.2336 956.625,225.6875 C 958.79779,220.21357 960,214.24467 960,208 C 960,181.504 938.496,160 912,160 C 899.71516,160 888.49281,164.61907 880,172.21875 C 871.50719,164.61907 860.28484,160 848,160 z"
         style="opacity:1;fill:#008fe4;fill-opacity:1;stroke:none;stroke-width:6;stroke-linecap:round;stroke-linejoin:round;stroke-miterlimit:4;stroke-dasharray:none;stroke-opacity:1" />
      <path
         sodipodi:nodetypes="ccsccssccssscscsscscc"
         id="path6939"
         d="M 848,170.53125 C 831.59107,170.53125 817.77817,181.02293 812.65625,195.5625 C 812.27173,196.65463 820,200 824,204 C 824.85291,204.85291 833.65685,212 828,212 C 818.74264,210.4885 811.5266,202.3812 802.28125,202.59375 C 800.75418,202.53082 800.72676,202.53125 800,202.53125 C 770.37463,202.53125 746.53125,226.37463 746.53125,256 C 746.53125,285.62537 770.37463,309.46875 800,309.46875 L 938.0625,309.46875 C 938.98879,309.29107 939.93473,309.23852 940.875,309.3125 C 942.02773,309.40784 943.0597,309.46875 944,309.46875 C 964.79337,309.46875 981.46877,292.79336 981.46875,272 C 981.46875,254.63321 969.71403,240.16276 953.84375,235.84375 C 950.96061,235.04799 941.33521,246.67637 940,244 C 938.6648,241.32362 945.74551,224.59452 946.84375,221.8125 C 948.53909,217.54142 949.46875,212.89195 949.46875,208 C 949.46875,187.20663 932.79337,170.53125 912,170.53125 C 902.35709,170.53125 893.66729,174.12433 887.03125,180.0625 C 885.02999,181.85437 874.51499,192 872,192 C 869.48501,192 874.97001,181.85437 872.96875,180.0625 C 866.33271,174.12433 857.64291,170.53125 848,170.53125 z"
         style="fill:#ffffff;fill-opacity:1;stroke:none;stroke-width:6;stroke-linecap:round;stroke-linejoin:round;stroke-miterlimit:4;stroke-opacity:1" />
    </g>
    <path
       style="opacity:1;fill:#008fe4;fill-opacity:1;stroke:none;stroke-width:6;stroke-linecap:round;stroke-linejoin:round;stroke-miterlimit:4;stroke-dasharray:none;stroke-opacity:1"
       d="M 121.89991,484 C 122.99943,486.41261 123.75,488.94175 123.75,491.61984 C 123.75,505.13584 108.59404,516.10535 89.919738,516.10535 C 84.194868,516.10535 78.878168,514.97543 74.149908,513.15625 C 74.604068,513.06202 75.087528,512.99963 75.537478,512.90119 C 77.898198,512.3847 80.194358,511.80803 82.431278,511.17955 C 84.668188,510.55108 86.828758,509.87271 88.928618,509.13909 C 91.028478,508.40548 93.057968,507.6117 95.007498,506.77981 C 96.957028,505.94793 98.837888,505.07284 100.62385,504.14953 C 102.4098,503.22623 104.10249,502.25613 105.7116,501.24826 C 107.32072,500.24038 108.85174,499.19345 110.27076,498.10786 C 111.68977,497.02227 112.99755,495.90074 114.21321,494.74429 C 115.42888,493.58785 116.53993,492.39394 117.53898,491.17349 C 118.53803,489.95304 119.43482,488.70493 120.20399,487.42733 C 120.87876,486.30655 121.41162,485.15981 121.89991,484 z"
       id="path6963" />
    <g
       id="g7151"
       transform="matrix(0.7704956,0.6374453,-0.6374453,0.7704956,25.436624,-170.08416)">
      <path
         sodipodi:nodetypes="cscss"
         id="path7001"
         d="M 768,416 C 740.8471,416 708.34941,453.19771 704,480 C 697.12298,522.37814 768,672 768,672 C 768,672 838.87702,522.37814 832,480 C 827.65059,453.19771 795.1529,416 768,416 z"
         style="fill:#ffff00;fill-opacity:1;fill-rule:evenodd;stroke:none;stroke-width:4;stroke-linecap:butt;stroke-linejoin:miter;stroke-miterlimit:4;stroke-dasharray:none;stroke-opacity:1;filter:url(#filter7147)" />
      <path
         d="M 768,431.5 C 761.50124,431.5 748.93365,437.87827 738.65625,448.65625 C 728.37885,459.43423 720.69112,473.97328 719.3125,482.46875 C 718.49853,487.48464 720.55418,504.48583 726,523.65625 C 731.44582,542.82667 739.52737,565.12344 747.84375,586.1875 C 754.96146,604.21551 761.99629,620.65269 768,634.3125 C 774.00371,620.65269 781.03854,604.21551 788.15625,586.1875 C 796.47263,565.12344 804.55418,542.82667 810,523.65625 C 815.44582,504.48583 817.50147,487.48464 816.6875,482.46875 C 815.30888,473.97328 807.62115,459.43423 797.34375,448.65625 C 787.06635,437.87827 774.49876,431.5 768,431.5 z"
         id="path7005"
         style="fill:#fdfee4;fill-opacity:1;fill-rule:evenodd;stroke:none;stroke-width:4;stroke-linecap:butt;stroke-linejoin:miter;stroke-miterlimit:4;stroke-dasharray:none;stroke-opacity:1;filter:url(#filter7063)"
         inkscape:original="M 768 416 C 740.8471 416 708.34941 453.19771 704 480 C 697.12298 522.37814 768 672 768 672 C 768 672 838.87702 522.37814 832 480 C 827.65059 453.19771 795.1529 416 768 416 z "
         inkscape:radius="-15.499326"
         sodipodi:type="inkscape:offset" />
    </g>
    <g
       id="g7875"
       transform="matrix(0.7727316,-2.0084384,2.0084384,0.7727316,-593.87323,687.08223)">
      <path
         sodipodi:nodetypes="cscscc"
         style="fill:#ff0000;fill-opacity:1;fill-rule:evenodd;stroke:#ffffff;stroke-width:2.78815389;stroke-linecap:butt;stroke-linejoin:miter;stroke-miterlimit:4;stroke-dasharray:none;stroke-opacity:1"
         d="M 219.57143,366.61218 C 219.57143,366.61218 175.22986,350.87668 155.57143,346.61218 C 146.11663,344.56115 123.57143,342.61218 123.57143,342.61218 C 123.57143,342.61218 147.33105,351.73496 155.57143,358.61218 C 160.17794,362.45666 167.57143,374.61218 167.57143,374.61218 L 219.57143,366.61218 z"
         id="path7833" />
      <path
         id="path7794"
         d="M 219.57143,418.61218 C 219.57143,418.61218 175.22986,434.34768 155.57143,438.61218 C 146.11663,440.66321 123.57143,442.61218 123.57143,442.61218 C 123.57143,442.61218 147.33105,433.4894 155.57143,426.61218 C 160.17794,422.7677 167.57143,410.61218 167.57143,410.61218 L 219.57143,418.61218 z"
         style="fill:#ff0000;fill-opacity:1;fill-rule:evenodd;stroke:#ffffff;stroke-width:2.78815389;stroke-linecap:butt;stroke-linejoin:miter;stroke-miterlimit:4;stroke-dasharray:none;stroke-opacity:1"
         sodipodi:nodetypes="cscscc" />
      <path
         style="fill:#ff0000;fill-opacity:1;stroke:#ffffff;stroke-width:2.78815389;stroke-miterlimit:4;stroke-dasharray:none;stroke-opacity:1"
         d="M 335.57143,392.61218 C 335.57143,392.61218 296.14743,424.61218 247.57143,424.61218 C 216.9649,426.66172 188.81859,414.88089 159.57143,408.61218 C 159.57143,408.61218 159.57143,397.02818 159.57143,392.61218 C 159.57143,388.19618 159.57143,376.61218 159.57143,376.61218 C 188.68222,368.3278 217.13223,361.50623 247.57143,360.61218 C 296.14743,360.61218 335.57143,392.61218 335.57143,392.61218 z"
         id="path7019"
         sodipodi:nodetypes="cccsccc" />
      <path
         style="fill:#ffffff;fill-opacity:1;stroke:#ffffff;stroke-opacity:1"
         d="M 136,16 C 127.87461,16.238656 119.89231,16.907773 112,17.90625 C 112,17.90625 110.01885,38.748408 110,48 C 109.98115,57.251592 112,79.0625 112,79.0625 C 119.86947,80.113199 127.8488,80.545838 136,80 C 141.46636,80 146.80857,79.594261 152,78.875 C 152,78.875 150,57.339909 150,48 C 150,38.660091 152,17.125 152,17.125 C 146.80857,16.405739 141.46636,16 136,16 z"
         transform="translate(111.57143,344.61218)"
         id="rect7814"
         sodipodi:nodetypes="cczcccscc" />
      <path
         style="fill:#ffffff;fill-opacity:1;stroke:none;stroke-opacity:1"
         d="M 192,29 C 192,29 191,42.175054 191,48 C 191,53.824946 192,67 192,67 C 200.0028,63.373677 206.74125,59.549 212,56.28125 C 212,56.28125 211,50.759007 211,48 C 211,45.240993 212,39.71875 212,39.71875 C 206.74125,36.451 200.0028,32.626323 192,29 z"
         transform="translate(111.57143,344.61218)"
         id="rect7821"
         sodipodi:nodetypes="csccscc" />
      <path
         style="fill:#ffffff;fill-opacity:1;stroke:none;stroke-opacity:1"
         d="M 80,23.6875 C 71.99726,25.511086 64.010667,27.578214 56,29.78125 C 56,29.78125 54.996853,42.526149 55,48 C 55.003083,53.361524 56,65.84375 56,65.84375 C 64.037535,67.810498 72.005746,70.057086 80,72.1875 C 80,72.1875 79.000771,55.262449 79,48 C 78.999225,40.700083 80,23.6875 80,23.6875 z"
         transform="translate(111.57143,344.61218)"
         id="path7826"
         sodipodi:nodetypes="ccsccsc" />
      <path
         sodipodi:type="inkscape:offset"
         inkscape:radius="0"
         inkscape:original="M 247.5625 360.625 C 217.1233 361.51905 188.67329 368.34062 159.5625 376.625 C 159.5625 376.625 159.5625 388.209 159.5625 392.625 C 159.5625 397.041 159.5625 408.625 159.5625 408.625 C 188.80966 414.89371 216.95597 426.67454 247.5625 424.625 C 296.1385 424.625 335.56249 392.625 335.5625 392.625 C 335.5625 392.625 296.1385 360.625 247.5625 360.625 z "
         style="fill:url(#linearGradient6755);fill-opacity:1;stroke:none;stroke-opacity:1"
         id="path7845"
         d="M 247.5625,360.625 C 217.1233,361.51905 188.67329,368.34062 159.5625,376.625 C 159.5625,376.625 159.5625,388.209 159.5625,392.625 C 159.5625,397.041 159.5625,408.625 159.5625,408.625 C 188.80966,414.89371 216.95597,426.67454 247.5625,424.625 C 296.1385,424.625 335.56249,392.625 335.5625,392.625 C 335.5625,392.625 296.1385,360.625 247.5625,360.625 z" />
      <path
         sodipodi:nodetypes="cscscc"
         style="fill:url(#linearGradient6757);fill-opacity:1;fill-rule:evenodd;stroke:none;stroke-width:1px;stroke-linecap:butt;stroke-linejoin:miter;stroke-opacity:1"
         d="M 219.57143,418.61218 C 219.57143,418.61218 175.22986,434.34768 155.57143,438.61218 C 146.11663,440.66321 123.57143,442.61218 123.57143,442.61218 C 123.57143,442.61218 147.33105,433.4894 155.57143,426.61218 C 160.17794,422.7677 167.57143,410.61218 167.57143,410.61218 L 219.57143,418.61218 z"
         id="path7849" />
      <path
         id="path7865"
         d="M 219.57143,366.61218 C 219.57143,366.61218 175.22986,350.87668 155.57143,346.61218 C 146.11663,344.56115 123.57143,342.61218 123.57143,342.61218 C 123.57143,342.61218 147.33105,351.73496 155.57143,358.61218 C 160.17794,362.45666 167.57143,374.61218 167.57143,374.61218 L 219.57143,366.61218 z"
         style="fill:url(#linearGradient6759);fill-opacity:1;fill-rule:evenodd;stroke:none;stroke-width:1px;stroke-linecap:butt;stroke-linejoin:miter;stroke-opacity:1"
         sodipodi:nodetypes="cscscc" />
    </g>
    <g
       id="g6995"
       transform="translate(-596.34375,60.84375)">
      <path
         id="path6965"
         d="M 763.40625,591.03125 C 728.2945,591.03125 698.44656,609.15798 687.6875,634.34375 C 677.37192,627.22495 664.87896,623.03125 651.40625,623.03125 C 634.66349,623.03125 619.40936,629.46384 608,640 C 599.19315,629.62418 586.07159,623.03125 571.40625,623.03125 C 544.91025,623.03125 523.40625,644.53525 523.40625,671.03125 L 523.40625,815.03125 L 1131.4062,815.03125 L 1131.4062,671.03125 C 1131.4062,644.53525 1109.9023,623.03125 1083.4062,623.03125 C 1077.7953,623.03125 1072.4126,624.00943 1067.4062,625.78125 C 1062.3999,624.00943 1057.0172,623.03125 1051.4062,623.03125 C 1039.1215,623.03125 1027.899,627.65032 1019.4062,635.25 C 1010.9135,627.65032 999.69105,623.03125 987.40625,623.03125 C 971.30395,623.03125 957.05255,630.97821 948.34375,643.15625 C 945.3099,640.5686 941.52364,639.03125 937.40625,639.03125 C 927.76623,639.03125 919.89829,647.47752 919.4375,658.0625 C 910.71195,656.10146 901.26821,655.03125 891.40625,655.03125 C 885.91876,655.03125 880.55274,655.36758 875.375,656 C 875.38452,655.67934 875.40625,655.3542 875.40625,655.03125 C 875.40625,637.36725 861.07025,623.03125 843.40625,623.03125 C 840.0356,623.03125 836.8018,623.56372 833.75,624.53125 C 820.19766,604.58137 793.76625,591.03125 763.40625,591.03125 z"
         style="opacity:1;fill:#008fe4;fill-opacity:1;stroke:none;stroke-width:6;stroke-linecap:round;stroke-linejoin:round;stroke-miterlimit:4;stroke-dasharray:none;stroke-opacity:1" />
      <path
         sodipodi:nodetypes="ccscscsssccccsssscscscssssscscsssscscc"
         id="path6992"
         d="M 763.40625,605.84375 C 733.3951,605.84375 709.19084,621.71393 701.3125,640.15625 C 696,648 708.26833,674.76491 704,676 C 699.73166,677.2351 682.941,649.05125 679.28125,646.53125 C 671.32998,641.04406 661.8036,637.84375 651.40625,637.84375 C 638.45937,637.84375 626.84373,642.76583 618.0625,650.875 C 615.09692,653.62319 611.13734,655.04057 607.10141,654.79865 C 603.06548,654.55673 599.30357,652.67651 596.6875,649.59375 C 590.57597,642.39344 581.62998,637.84375 571.40625,637.84375 C 552.92875,637.84375 538.21875,652.55375 538.21875,671.03125 L 538.21875,800.21875 L 1116.5938,800.21875 L 1116.5938,671.03125 C 1116.5937,652.55366 1101.884,637.84375 1083.4062,637.84375 C 1079.5177,637.84375 1075.8181,638.52041 1072.3438,639.75 C 1069.1489,640.8788 1065.6637,640.8788 1062.4688,639.75 C 1058.9947,638.52047 1055.295,637.84375 1051.4062,637.84375 C 1042.8364,637.84375 1035.1632,641.01787 1029.2812,646.28125 C 1026.469,648.79384 1007.5314,672 1004,672 C 1000.4686,672 1020,652 1009.5312,646.28125 C 1003.6497,641.01806 995.97621,637.84375 987.40625,637.84375 C 976.17999,637.84375 966.43967,643.34435 960.40625,651.78125 C 957.99203,655.16178 954.26995,657.37399 950.14668,657.879 C 946.0234,658.38401 941.87745,657.13547 938.71875,654.4375 C 938.1118,653.91982 937.83467,653.84375 937.40625,653.84375 C 936.42271,653.84375 934.4069,655.11459 934.25,658.71875 C 934.05839,663.10405 939.48683,677.33361 936,680 C 932.51318,682.6664 920.46981,673.49532 916.1875,672.53125 C 908.56851,670.81891 900.19605,669.84375 891.40625,669.84375 C 886.5243,669.84375 881.7385,670.15906 877.15625,670.71875 C 872.86954,671.23702 864,676 856,680 C 852.13792,681.93104 860,668 860.5625,655.5625 C 860.59379,654.87062 860.59375,654.68942 860.59375,655.03125 C 860.59375,645.38575 853.05175,637.84375 843.40625,637.84375 C 841.59636,637.84375 839.88876,638.1268 838.21875,638.65625 C 835.09623,639.64037 810.93942,661.02193 808,660 C 805.06059,658.97807 824,644 821.5,632.84375 C 811.22785,617.72251 789.35669,605.84375 763.40625,605.84375 z"
         style="fill:#ffffe4;fill-opacity:1;stroke:none;stroke-width:6;stroke-linecap:round;stroke-linejoin:round;stroke-miterlimit:4;stroke-opacity:1" />
    </g>
    <g
       id="g6912"
       transform="translate(-58.03322,12.96201)">
      <path
         id="path6820"
         d="M 277.00993,39.33576 C 315.27271,39.33576 346.32655,70.389605 346.32655,108.65238 C 346.32655,110.80605 346.22573,112.93425 346.03322,115.03799 C 352.89881,110.99453 360.89311,108.65238 369.43209,108.65238 C 394.9406,108.65238 415.64317,129.35494 415.64317,154.86346 C 415.64317,180.37197 394.9406,201.07453 369.43209,201.07453 L 184.58778,201.07453 C 146.325,201.07453 115.27116,170.02069 115.27116,131.75792 C 115.27116,93.495144 146.325,62.441299 184.58778,62.441299 C 196.94115,62.441299 208.54369,65.682703 218.59173,71.354081 C 230.91303,52.11035 252.47968,39.33576 277.00993,39.33576 z"
         style="fill:#008fe4;fill-opacity:1;stroke:none;stroke-width:2;stroke-linecap:round;stroke-linejoin:round;stroke-miterlimit:4;stroke-dasharray:none;stroke-opacity:1" />
      <path
         sodipodi:nodetypes="cssscssccssssscc"
         id="path6822"
         d="M 277.00993,50.256738 C 309.36551,50.256738 335.40557,76.296797 335.40557,108.65238 C 335.40557,110.46532 335.32051,112.26238 335.15737,114.04517 C 334.78144,118.12811 316.53592,125.80641 320,128 C 323.46407,130.1936 348.05376,126.5327 351.58396,124.44718 C 356.84479,121.34884 362.88953,119.57336 369.43209,119.57336 C 389.03341,119.57336 404.72219,135.26213 404.72219,154.86346 C 404.72219,174.46478 389.03341,190.15356 369.43209,190.15356 L 184.58778,190.15356 C 152.23222,190.15356 126.19214,164.1135 126.19214,131.75792 C 126.19214,99.402335 152.23222,73.362277 184.58778,73.362277 C 189.80956,73.362277 200.1955,75.159223 211.15307,82.087087 C 222.11061,89.014951 233.6397,101.07374 237.87265,103.46275 C 240.39315,104.88529 242.98537,103.23157 237.87265,98.118837 C 227.18482,87.431003 226.21159,79.678735 227.77528,77.243285 C 238.16012,61.023968 256.2701,50.256738 277.00993,50.256738 z"
         style="fill:#fffffa;fill-opacity:1;stroke:none;stroke-width:2;stroke-linecap:round;stroke-linejoin:round;stroke-miterlimit:4;stroke-opacity:1" />
    </g>
  </g>
  <g
     inkscape:groupmode="layer"
     id="layer3"
     inkscape:label="Fade"
     style="display:none"
     sodipodi:insensitive="true">
    <rect
       style="opacity:1;fill:#000000;fill-opacity:0.19607843;stroke:none;stroke-width:6;stroke-linecap:round;stroke-linejoin:round;stroke-miterlimit:4;stroke-dasharray:none;stroke-opacity:1"
       id="rect6845"
       width="480"
       height="800"
       x="0"
       y="0" />
  </g>
</svg>
