<?xml version="1.0" encoding="UTF-8" standalone="no"?>
<!-- Created with Inkscape (http://www.inkscape.org/) -->
<svg
   xmlns:dc="http://purl.org/dc/elements/1.1/"
   xmlns:cc="http://creativecommons.org/ns#"
   xmlns:rdf="http://www.w3.org/1999/02/22-rdf-syntax-ns#"
   xmlns:svg="http://www.w3.org/2000/svg"
   xmlns="http://www.w3.org/2000/svg"
   xmlns:sodipodi="http://sodipodi.sourceforge.net/DTD/sodipodi-0.dtd"
   xmlns:inkscape="http://www.inkscape.org/namespaces/inkscape"
   width="960"
   height="160"
   id="svg2463"
   sodipodi:version="0.32"
   inkscape:version="0.46"
   version="1.0"
   sodipodi:docname="CloudTile_2.svg"
   inkscape:output_extension="org.inkscape.output.svg.inkscape"
   inkscape:export-filename="C:\Documents and Settings\Edward\My Documents\Android\ShokoRocket\ShokoRocket\assets\Bitmaps\Game\CloudTile.png"
   inkscape:export-xdpi="90"
   inkscape:export-ydpi="90">
  <defs
     id="defs2465">
    <inkscape:perspective
       sodipodi:type="inkscape:persp3d"
       inkscape:vp_x="0 : 526.18109 : 1"
       inkscape:vp_y="0 : 1000 : 0"
       inkscape:vp_z="744.09448 : 526.18109 : 1"
       inkscape:persp3d-origin="372.04724 : 350.78739 : 1"
       id="perspective2471" />
  </defs>
  <sodipodi:namedview
     id="base"
     pagecolor="#ffffff"
     bordercolor="#666666"
     borderopacity="1.0"
     gridtolerance="10000"
     guidetolerance="10"
     objecttolerance="10"
     inkscape:pageopacity="0.0"
     inkscape:pageshadow="2"
     inkscape:zoom="0.70710678"
     inkscape:cx="439.79284"
     inkscape:cy="-72.762395"
     inkscape:document-units="px"
     inkscape:current-layer="layer1"
     showgrid="true"
     inkscape:window-width="1180"
     inkscape:window-height="742"
     inkscape:window-x="96"
     inkscape:window-y="-4">
    <inkscape:grid
       type="xygrid"
       id="grid2476"
       visible="true"
       enabled="true"
       spacingx="1px"
       spacingy="1px" />
  </sodipodi:namedview>
  <metadata
     id="metadata2468">
    <rdf:RDF>
      <cc:Work
         rdf:about="">
        <dc:format>image/svg+xml</dc:format>
        <dc:type
           rdf:resource="http://purl.org/dc/dcmitype/StillImage" />
      </cc:Work>
    </rdf:RDF>
  </metadata>
  <g
     inkscape:label="Layer 1"
     inkscape:groupmode="layer"
     id="layer1">
    <path
       sodipodi:type="inkscape:offset"
       inkscape:radius="11.800038"
       inkscape:original="M 256 32 C 229.504 32 208 53.504 208 80 C 208 80.934341 208.04099 81.860048 208.09375 82.78125 C 203.06102 80.988286 197.64579 80 192 80 C 169.26794 80 150.2058 95.833139 145.25 117.0625 C 140.26875 113.86321 134.35579 112 128 112 C 127.09732 112 126.19633 112.05159 125.3125 112.125 C 118.75445 93.421627 100.93409 80 80 80 C 54.735447 80 34.02821 99.555664 32.15625 124.34375 C 23.645813 116.66466 12.356682 112 0 112 C -26.496 112 -48 133.504 -48 160 C -48 186.496 -26.496 208 0 208 L 960 208 C 986.496 208 1008 186.496 1008 160 C 1008 133.504 986.496 112 960 112 C 945.1995 112 931.96349 118.70832 923.15625 129.25 C 915.34831 111.73404 898.82374 98.968104 879.09375 96.46875 C 879.68273 93.739252 880 90.904832 880 88 C 880 65.92 862.08 48 840 48 C 819.66623 48 802.87479 63.1952 800.34375 82.84375 C 795.24274 80.9953 789.73659 80 784 80 C 762.61174 80 744.4785 94.004455 738.28125 113.34375 C 734.99981 112.47237 731.55445 112 728 112 C 724.44555 112 721.00019 112.47237 717.71875 113.34375 C 711.5215 94.004455 693.38826 80 672 80 C 656.14674 80 642.08596 87.702699 633.34375 99.5625 C 622.8677 78.488291 601.11727 64 576 64 C 555.08017 64 536.49296 74.057346 524.8125 89.59375 C 516.78792 83.562175 506.80419 80 496 80 C 490.17953 80 484.60114 81.037122 479.4375 82.9375 C 477.11267 72.116338 467.51255 64 456 64 C 442.752 64 432 74.752 432 88 C 432 92.38754 433.19127 96.491154 435.25 100.03125 C 429.35791 97.447567 422.84223 96 416 96 C 410.34374 96 404.91563 96.981929 399.875 98.78125 C 399.95359 97.867161 400 96.934341 400 96 C 400 78.336 385.664 64 368 64 C 354.70253 64 343.29799 72.135041 338.46875 83.6875 C 332.78506 81.315286 326.54038 80 320 80 C 314.35421 80 308.93898 80.988286 303.90625 82.78125 C 303.95901 81.860048 304 80.934341 304 80 C 304 53.504 282.496 32 256 32 z "
       style="opacity:1;fill:#00b0e4;fill-opacity:1;stroke:none;stroke-width:4;stroke-linecap:round;stroke-linejoin:round;stroke-miterlimit:4;stroke-dasharray:none;stroke-opacity:1"
       id="path2431"
       d="M 256,20.1875 C 227.00153,20.1875 202.66092,41.156862 197.3125,68.65625 C 195.54156,68.496489 193.80897,68.1875 192,68.1875 C 168.5966,68.1875 148.36604,81.852399 138.5625,101.59375 C 136.7736,101.14602 134.95761,100.78245 133.09375,100.5625 C 123.1169,81.336302 103.02232,68.1875 80,68.1875 C 54.994073,68.1875 33.477969,83.754339 24.59375,105.6875 C 17.049217,102.27224 8.7607487,100.1875 0,100.1875 C -32.880562,100.1875 -59.8125,127.11944 -59.8125,160 C -59.8125,192.88056 -32.880562,219.8125 0,219.8125 L 960,219.8125 C 992.88056,219.8125 1019.8125,192.88056 1019.8125,160 C 1019.8125,127.11944 992.88056,100.1875 960,100.1875 C 947.34083,100.1875 935.5795,104.23418 925.875,111 C 917.37367,99.846595 905.50608,91.47613 891.78125,87.28125 C 891.38915,59.146453 868.22257,36.1875 840,36.1875 C 818.29969,36.1875 799.75649,49.792546 792.09375,68.875 C 789.42345,68.512623 786.75296,68.1875 784,68.1875 C 761.03752,68.1875 741.00335,81.261562 731,100.40625 C 729.99601,100.3473 729.01775,100.1875 728,100.1875 C 726.98225,100.1875 726.00399,100.3473 725,100.40625 C 714.99665,81.261562 694.96248,68.1875 672,68.1875 C 658.1509,68.1875 645.39136,73.035598 635.21875,81 C 621.30891,63.516581 599.97194,52.1875 576,52.1875 C 555.13809,52.1875 536.19956,60.750102 522.46875,74.46875 C 514.45896,70.510603 505.47235,68.1875 496,68.1875 C 492.70778,68.1875 489.47454,68.545603 486.3125,69.0625 C 479.9659,58.937118 468.72271,52.1875 456,52.1875 C 437.58392,52.1875 422.39616,66.469968 420.5625,84.4375 C 419.05166,84.321837 417.5371,84.1875 416,84.1875 C 413.99937,84.1875 412.08094,84.524752 410.125,84.71875 C 405.07855,66.107321 388.12791,52.1875 368,52.1875 C 353.78817,52.1875 341.14166,59.092207 333.125,69.6875 C 328.88966,68.736211 324.49838,68.1875 320,68.1875 C 318.19103,68.1875 316.45844,68.496489 314.6875,68.65625 C 309.33908,41.156862 284.99847,20.1875 256,20.1875 z" />
    <path
       sodipodi:type="inkscape:offset"
       inkscape:radius="13.170778"
       inkscape:original="M 80 180 C 52.338911 180 29.025833 198.7439 22.09375 224.21875 C 15.25363 221.50487 7.8026544 220 0 220 C -33.12 220 -60 246.88 -60 280 L -60 360 L 1020 360 L 1020 280 C 1020 246.88 993.12 220 960 220 C 940.35083 220 922.91537 229.45044 911.96875 244.0625 C 905.33263 241.45717 897.88659 240 890 240 C 878.71753 240 868.30714 242.98215 859.9375 248.03125 C 858.89721 221.34744 836.93723 200 810 200 C 791.06504 200 774.57996 210.56187 766.09375 226.09375 C 758.01709 230.50662 751.28511 237.10338 746.6875 245.0625 C 741.91763 241.86507 736.16973 240 730 240 C 723.42617 240 717.35116 242.12844 712.40625 245.71875 C 702.14967 230.39845 682.53323 220 660 220 C 649.58754 220 639.7876 222.20025 631.25 226.09375 C 622.23544 210.34386 607.11434 200 590 200 C 578.01261 200 566.99134 205.08108 558.375 213.53125 C 554.33364 205.66872 543.1583 200 530 200 C 513.44 200 500 208.96 500 220 C 500 220.33456 500.00685 220.66946 500.03125 221 C 479.49527 225.16348 463.49918 241.91061 460.5 262.84375 C 456.74077 261.71937 452.58169 260.86494 448.15625 260.40625 C 449.35607 257.16458 450 253.65716 450 250 C 450 233.44 436.56 220 420 220 C 405.34458 220 393.14638 230.53802 390.53125 244.4375 C 384.26296 241.60636 377.32106 240 370 240 C 352.13022 240 336.46681 249.41943 327.625 263.53125 C 320.45405 254.17829 310.6106 247.00955 299.21875 243.15625 C 296.1187 229.89159 284.20492 220 270 220 C 266.24911 220 262.65458 220.67838 259.34375 221.9375 C 255.48692 198.16429 234.85706 180 210 180 C 183.92545 180 162.50835 199.98688 160.21875 225.46875 C 154.28755 221.98762 147.36976 220 140 220 C 138.86434 220 137.73678 220.06331 136.625 220.15625 C 128.42681 196.77818 106.16679 180 80 180 z "
       style="fill:#008fe4;fill-opacity:1;stroke:none;stroke-width:4;stroke-linecap:round;stroke-linejoin:round;stroke-miterlimit:4;stroke-dasharray:none;stroke-opacity:1"
       id="path3297"
       d="M 80,166.84375 C 51.113647,166.84375 26.05877,183.72944 14.1875,208.21875 C 9.590274,207.30932 4.8478656,206.84375 0,206.84375 C -40.246218,206.84375 -73.15625,239.75378 -73.15625,280 L -73.15625,360 C -73.147519,367.26238 -67.262377,373.14752 -60,373.15625 L 1020,373.15625 C 1027.2624,373.14749 1033.1475,367.26236 1033.1562,360 L 1033.1562,280 C 1033.1562,239.75378 1000.2462,206.84375 960,206.84375 C 939.53117,206.84375 920.92639,215.32881 907.625,228.96875 C 901.99479,227.59896 896.10534,226.84375 890,226.84375 C 882.95067,226.84375 876.14492,227.81755 869.75,229.625 C 861.22784,204.79435 837.60928,186.84375 810,186.84375 C 787.51189,186.84375 767.743,198.76764 756.5625,216.59375 C 751.26401,219.92188 746.5156,223.99216 742.4375,228.6875 C 738.48228,227.49856 734.30243,226.84375 730,226.84375 C 725.031,226.84375 720.25253,227.71393 715.78125,229.28125 C 702.12808,215.26788 682.10436,206.84375 660,206.84375 C 651.71205,206.84375 643.74728,208.099 636.25,210.3125 C 624.93581,196.24681 608.57243,186.84375 590,186.84375 C 579.07302,186.84375 568.80588,190.14968 559.9375,195.6875 C 551.84602,189.65809 541.20662,186.84375 530,186.84375 C 519.34459,186.84375 509.46961,189.57234 501.46875,194.90625 C 495.93309,198.59669 491.11344,204.01947 488.625,210.59375 C 476.80415,214.85135 466.69823,222.56748 459.34375,232.46875 C 452.56665,217.42651 437.45194,206.84375 420,206.84375 C 404.23379,206.84375 390.312,215.39503 382.78125,228.15625 C 378.65319,227.29791 374.37363,226.84375 370,226.84375 C 353.31705,226.84375 338.09613,233.38742 326.78125,244.03125 C 321.66608,239.74943 316.01496,236.1443 309.84375,233.375 C 303.30485,217.75804 287.8378,206.84375 270,206.84375 C 269.54427,206.84375 269.10975,206.95467 268.65625,206.96875 C 259.39731,183.51473 236.5992,166.84375 210,166.84375 C 182.9662,166.84375 159.76666,184.01886 150.8125,208.0625 C 148.99173,207.68437 147.15887,207.37459 145.28125,207.1875 C 133.21482,183.26518 108.47386,166.84375 80,166.84375 z"
       transform="translate(-30.1875,175.78125)" />
    <path
       style="fill:#ffffff;fill-opacity:1;stroke:none;stroke-width:4;stroke-linecap:round;stroke-linejoin:round;stroke-miterlimit:4;stroke-dasharray:none;stroke-opacity:1"
       d="M 49.8125,355.78125 C 22.151411,355.78125 -10.1875,379.78125 1.8125,411.78125 C -5.02762,409.06737 -10.1875,395.78125 -30.1875,395.78125 C -63.3075,395.78125 -90.1875,422.66125 -90.1875,455.78125 L -90.1875,535.78125 L 989.8125,535.78125 L 989.8125,455.78125 C 989.8125,422.66125 962.9325,395.78125 929.8125,395.78125 C 910.16333,395.78125 877.8125,403.78125 909.8125,435.78125 C 903.17638,433.17592 889.8125,411.78125 859.8125,415.78125 C 848.629,417.27238 822.18214,434.73215 813.8125,439.78125 C 841.8125,407.78125 806.74973,375.78125 779.8125,375.78125 C 760.87754,375.78125 741.8125,379.78125 741.8125,399.78125 C 729.8125,399.78125 713.8125,411.78125 729.8125,435.78125 C 725.04263,432.58382 717.8125,415.78125 699.8125,415.78125 C 677.8125,415.78125 677.8125,435.78125 669.8125,435.78125 C 685.8125,411.78125 652.34573,395.78125 629.8125,395.78125 C 605.8125,395.78125 605.8125,407.78125 609.8125,419.78125 C 597.8125,391.78125 576.92684,375.78125 559.8125,375.78125 C 537.8125,375.78125 525.8125,415.78125 513.8125,411.78125 C 533.8125,383.78125 512.9708,375.78125 499.8125,375.78125 C 483.2525,375.78125 469.8125,384.74125 469.8125,395.78125 C 469.8125,396.11581 469.81935,396.45071 469.84375,396.78125 C 449.30777,400.94473 429.8125,415.78125 425.8125,451.78125 C 421.8125,439.78125 419.8125,429.43841 419.8125,425.78125 C 419.8125,409.22125 406.3725,395.78125 389.8125,395.78125 C 375.15708,395.78125 353.8125,403.78125 377.8125,435.78125 C 369.8125,435.78125 353.8125,411.78125 339.8125,415.78125 C 321.94272,415.78125 301.8125,423.78125 297.8125,447.78125 C 297.8125,423.78125 280.4231,422.7908 269.03125,418.9375 C 265.9312,405.67284 254.01742,395.78125 239.8125,395.78125 C 229.8125,395.78125 233.8125,403.78125 221.8125,411.78125 C 237.8125,375.78125 204.66956,355.78125 179.8125,355.78125 C 145.8125,355.78125 125.8125,375.78125 137.8125,407.78125 C 129.8125,391.78125 117.18226,395.78125 109.8125,395.78125 C 108.67684,395.78125 107.54928,395.84456 106.4375,395.9375 C 98.23931,372.55943 75.97929,355.78125 49.8125,355.78125 z"
       id="path2478"
       sodipodi:nodetypes="cccccccscccsccscscscssccssccccscccscc" />
    <path
       style="opacity:1;fill:#ffffff;fill-opacity:1;stroke:none;stroke-width:4;stroke-linecap:round;stroke-linejoin:round;stroke-miterlimit:4;stroke-dasharray:none;stroke-opacity:1"
       d="M 256,32 C 229.504,32 208,53.504 208,80 C 214,84 216,84 220,96 C 216,84 200,80 192,80 C 169.26794,80 150.2058,95.833139 145.25,117.0625 C 140.26875,113.86321 126.19633,112.05159 125.3125,112.125 C 118.75445,93.421627 100.93409,80 80,80 C 54.735447,80 24,104 40,136 C 31.489563,128.32091 12.356682,112 0,112 C -26.496,112 -48,133.504 -48,160 C -48,186.496 -26.496,208 0,208 L 960,208 C 986.496,208 1008,186.496 1008,160 C 1008,133.504 986.496,112 960,112 C 956.29987,112 952.69753,112.41927 949.23772,113.21289 C 945.77791,114.00651 942.46064,115.17447 939.33065,116.67187 C 936.20067,118.16926 933.1012,119.80893 930.54732,122.10742 C 924,128 930.20181,145.36458 928,148 C 928.03016,140.03016 921.9109,126.25275 912,116 C 904.13766,107.86646 896,104 888,104 C 877.60547,104.34375 870,110 868,108 C 880,104 880,90.904832 880,88 C 880,65.92 862.08,48 840,48 C 826,48 811,57 808,68 C 806,78 820,92 820,92 C 808,79 789.73659,80 784,80 C 773.30587,80 763.4255,83.501114 755.444,89.419639 C 751.45325,92.378902 747.93722,95.942518 745.03155,99.975024 C 742.12587,104.00753 740,116 748,120 C 744,116 736,112 728,112 C 720,112 712,116 708,120 C 716,116 713.87413,104.00753 710.96845,99.975024 C 708.06278,95.942518 704.54675,92.378902 700.556,89.419639 C 692.5745,83.501114 682.69413,80 672,80 C 664.07337,80 656.59486,81.925675 650.00523,85.333825 C 646.71042,87.0379 643.63782,89.112593 640.84254,91.502506 C 639.4449,92.697462 638.11659,93.971223 636.8645,95.316864 C 635.61241,96.662504 628,104 624,116 C 620,112 630.54858,94.396853 628.90219,91.983821 C 627.2558,89.570789 625.4487,87.276096 623.49632,85.115177 C 619.59157,80.79334 615.10572,77.006596 610.16233,73.878422 C 600.27556,67.622073 588.55863,64 576,64 C 570.77004,64 565.68587,64.628584 560.81896,65.814217 C 555.95206,66.999849 551.30241,68.74253 546.94149,70.970723 C 542.58057,73.198917 538.50838,75.912623 534.79639,79.040306 C 531.0844,82.167989 544,108 540,108 C 540,100 528,88 511.4486,82.535034 C 509.01732,81.732271 506.51221,81.07903 503.93151,80.650833 C 501.35082,80.222636 498.70105,80 496,80 C 490.17953,80 484.60114,81.037122 479.4375,82.9375 C 477.11267,72.116338 467.51255,64 456,64 C 442.752,64 432,74.752 432,88 C 432,92.38754 433.19127,96.491154 435.25,100.03125 C 429.35791,97.447567 422.84223,96 416,96 C 410.34374,96 404.91563,96.981929 399.875,98.78125 C 399.95359,97.867161 400,96.934341 400,96 C 400,78.336 385.664,64 368,64 C 361.35127,64 355.17576,66.03376 350.05879,69.511578 C 344.94182,72.989396 340,84 348,92 C 344,84 332.64481,81.579518 329.55563,80.95417 C 326.46645,80.328822 323.27019,80 320,80 C 314.35421,80 300,84 296,92 C 296.05276,91.078798 304,80.934341 304,80 C 304,53.504 282.496,32 256,32 z"
       id="path2384"
       sodipodi:nodetypes="ccccccscssccssssscsccscccssscscsssssscssssssscssscsscscssscsscsc" />
  </g>
</svg>
