<?xml version="1.0" encoding="UTF-8" standalone="no"?>
<svg
   xmlns:dc="http://purl.org/dc/elements/1.1/"
   xmlns:cc="http://creativecommons.org/ns#"
   xmlns:rdf="http://www.w3.org/1999/02/22-rdf-syntax-ns#"
   xmlns:svg="http://www.w3.org/2000/svg"
   xmlns="http://www.w3.org/2000/svg"
   xmlns:xlink="http://www.w3.org/1999/xlink"
   xmlns:sodipodi="http://sodipodi.sourceforge.net/DTD/sodipodi-0.dtd"
   xmlns:inkscape="http://www.inkscape.org/namespaces/inkscape"
   sodipodi:docname="Cog.svg"
   inkscape:version="1.0 (4035a4fb49, 2020-05-01)"
   id="svg8"
   version="1.1"
   viewBox="0 0 33.866666 33.866668"
   height="128"
   width="128">
  <defs
     id="defs2">
    <linearGradient
       id="linearGradient863"
       inkscape:collect="always">
      <stop
         id="stop859"
         offset="0"
         style="stop-color:#ffffff;stop-opacity:1" />
      <stop
         id="stop861"
         offset="1"
         style="stop-color:#ffffff;stop-opacity:0" />
    </linearGradient>
    <linearGradient
       gradientUnits="userSpaceOnUse"
       y2="48"
       x2="56"
       y1="24"
       x1="40"
       id="linearGradient865"
       xlink:href="#linearGradient863"
       inkscape:collect="always" />
  </defs>
  <sodipodi:namedview
     inkscape:window-maximized="1"
     inkscape:window-y="-6"
     inkscape:window-x="-6"
     inkscape:window-height="938"
     inkscape:window-width="1500"
     units="px"
     showgrid="true"
     inkscape:document-rotation="0"
     inkscape:current-layer="layer1"
     inkscape:document-units="mm"
     inkscape:cy="45.973324"
     inkscape:cx="109.41181"
     inkscape:zoom="3.0552894"
     inkscape:pageshadow="2"
     inkscape:pageopacity="0.0"
     borderopacity="1.0"
     bordercolor="#666666"
     pagecolor="#ffffff"
     id="base">
    <inkscape:grid
       empspacing="8"
       id="grid10"
       type="xygrid" />
  </sodipodi:namedview>
  <metadata
     id="metadata5">
    <rdf:RDF>
      <cc:Work
         rdf:about="">
        <dc:format>image/svg+xml</dc:format>
        <dc:type
           rdf:resource="http://purl.org/dc/dcmitype/StillImage" />
        <dc:title></dc:title>
      </cc:Work>
    </rdf:RDF>
  </metadata>
  <g
     id="layer1"
     inkscape:groupmode="layer"
     inkscape:label="Layer 1">
    <path
       transform="scale(0.26458333)"
       d="M 47.257812 9.0019531 L 24.742188 22.001953 L 33.828125 37.740234 A 39.999995 39.999995 0 0 0 26.171875 51 L 8 51 L 8 77 L 26.171875 77 A 39.999995 39.999995 0 0 0 33.828125 90.259766 L 24.742188 105.99805 L 47.257812 118.99805 L 56.34375 103.25977 A 39.999995 39.999995 0 0 0 64 104 A 39.999995 39.999995 0 0 0 71.65625 103.25977 L 80.742188 118.99805 L 103.25781 105.99805 L 94.171875 90.259766 A 39.999995 39.999995 0 0 0 101.82812 77 L 120 77 L 120 51 L 101.82812 51 A 39.999995 39.999995 0 0 0 94.171875 37.740234 L 103.25781 22.001953 L 80.742188 9.0019531 L 71.65625 24.740234 A 39.999995 39.999995 0 0 0 64 24 A 39.999995 39.999995 0 0 0 56.34375 24.740234 L 47.257812 9.0019531 z "
       style="fill:#0000ff;fill-rule:evenodd;stroke-width:5.06456699;stroke:#ffffff;stroke-opacity:1;stroke-miterlimit:4;stroke-dasharray:none;stroke-linecap:round;stroke-linejoin:round"
       id="path12" />
    <path
       transform="scale(0.26458333)"
       d="M 44.748047,18.367188 34.107422,24.511719 39.765625,34.3125 A 6.8565968,6.8565968 0 0 1 39,42.242188 c -2.793755,3.209725 -4.960596,6.962115 -6.34375,10.986328 a 6.8565968,6.8565968 0 0 1 -6.484375,4.626953 H 14.855469 v 12.289062 h 11.316406 a 6.8565968,6.8565968 0 0 1 6.484375,4.626953 C 34.039404,78.795697 36.206245,82.548087 39,85.757812 a 6.8565968,6.8565968 0 0 1 0.765625,7.929688 l -5.658203,9.80078 10.640625,6.14453 5.658203,-9.800779 a 6.8565968,6.8565968 0 0 1 7.25,-3.300781 c 2.088433,0.407458 4.21594,0.6131 6.34375,0.613281 2.12781,-1.81e-4 4.255317,-0.205823 6.34375,-0.613281 a 6.8565968,6.8565968 0 0 1 7.25,3.300781 l 5.658203,9.800779 10.640625,-6.14453 -5.658203,-9.80078 A 6.8565968,6.8565968 0 0 1 89,85.757812 c 2.793753,-3.209725 4.960597,-6.962115 6.34375,-10.986328 a 6.8565968,6.8565968 0 0 1 6.48437,-4.626953 h 11.31641 V 57.855469 H 101.82812 A 6.8565968,6.8565968 0 0 1 95.34375,53.228516 C 93.960597,49.204303 91.793753,45.451913 89,42.242188 A 6.8565968,6.8565968 0 0 1 88.234375,34.3125 l 5.658203,-9.800781 -10.640625,-6.144531 -5.658203,9.800781 a 6.8565968,6.8565968 0 0 1 -7.25,3.300781 C 68.255317,31.061291 66.12781,30.855651 64,30.855469 c -2.12781,1.82e-4 -4.255317,0.205822 -6.34375,0.613281 a 6.8565968,6.8565968 0 0 1 -7.25,-3.300781 z"
       inkscape:original="M 47.257812 9.0019531 L 24.742188 22.001953 L 33.828125 37.740234 A 39.999995 39.999995 0 0 0 26.171875 51 L 8 51 L 8 77 L 26.171875 77 A 39.999995 39.999995 0 0 0 33.828125 90.259766 L 24.742188 105.99805 L 47.257812 118.99805 L 56.34375 103.25977 A 39.999995 39.999995 0 0 0 64 104 A 39.999995 39.999995 0 0 0 71.65625 103.25977 L 80.742188 118.99805 L 103.25781 105.99805 L 94.171875 90.259766 A 39.999995 39.999995 0 0 0 101.82812 77 L 120 77 L 120 51 L 101.82812 51 A 39.999995 39.999995 0 0 0 94.171875 37.740234 L 103.25781 22.001953 L 80.742188 9.0019531 L 71.65625 24.740234 A 39.999995 39.999995 0 0 0 64 24 A 39.999995 39.999995 0 0 0 56.34375 24.740234 L 47.257812 9.0019531 z "
       inkscape:radius="-6.8559113"
       sodipodi:type="inkscape:offset"
       style="fill:url(#linearGradient865);fill-rule:evenodd;stroke:none;stroke-width:5.06457;stroke-linecap:round;stroke-linejoin:round;stroke-miterlimit:4;stroke-dasharray:none;stroke-opacity:1;fill-opacity:1"
       id="path856" />
  </g>
</svg>
