<?xml version="1.0" encoding="UTF-8" standalone="no"?>
<!-- Created with Inkscape (http://www.inkscape.org/) -->

<svg
   xmlns:dc="http://purl.org/dc/elements/1.1/"
   xmlns:cc="http://creativecommons.org/ns#"
   xmlns:rdf="http://www.w3.org/1999/02/22-rdf-syntax-ns#"
   xmlns:svg="http://www.w3.org/2000/svg"
   xmlns="http://www.w3.org/2000/svg"
   xmlns:sodipodi="http://sodipodi.sourceforge.net/DTD/sodipodi-0.dtd"
   xmlns:inkscape="http://www.inkscape.org/namespaces/inkscape"
   width="128"
   height="128"
   id="svg2"
   version="1.1"
   inkscape:version="0.48.0 r9654"
   sodipodi:docname="Play.svg"
   inkscape:export-filename="C:\Users\Edward\Documents\Android Workspace\ShokoRocketAndroid\ShokoRocket\res\drawable-mdpi\play.png"
   inkscape:export-xdpi="67.5"
   inkscape:export-ydpi="67.5">
  <defs
     id="defs4" />
  <sodipodi:namedview
     id="base"
     pagecolor="#ffffff"
     bordercolor="#666666"
     borderopacity="1.0"
     inkscape:pageopacity="0.0"
     inkscape:pageshadow="2"
     inkscape:zoom="2.0042164"
     inkscape:cx="176.16197"
     inkscape:cy="78.249472"
     inkscape:document-units="px"
     inkscape:current-layer="layer1"
     showgrid="true"
     inkscape:window-width="1280"
     inkscape:window-height="738"
     inkscape:window-x="-8"
     inkscape:window-y="-8"
     inkscape:window-maximized="1">
    <inkscape:grid
       type="xygrid"
       id="grid2985"
       empspacing="4"
       visible="true"
       enabled="true"
       snapvisiblegridlinesonly="true"
       spacingx="4px"
       spacingy="4px" />
  </sodipodi:namedview>
  <metadata
     id="metadata7">
    <rdf:RDF>
      <cc:Work
         rdf:about="">
        <dc:format>image/svg+xml</dc:format>
        <dc:type
           rdf:resource="http://purl.org/dc/dcmitype/StillImage" />
        <dc:title></dc:title>
      </cc:Work>
    </rdf:RDF>
  </metadata>
  <g
     inkscape:label="Layer 1"
     inkscape:groupmode="layer"
     id="layer1"
     transform="translate(0,-924.36218)">
    <path
       style="fill:#999999;fill-opacity:0.78431374;stroke:none;stroke-width:2;stroke-linecap:round;stroke-linejoin:round;stroke-miterlimit:4;stroke-opacity:1;stroke-dasharray:none"
       d="M 64 0 C 28.653776 7.1054274e-015 -1.1242185e-016 28.653776 0 64 C 0 99.346224 28.653776 128 64 128 C 99.346224 128 128 99.346224 128 64 C 128 28.653776 99.346224 -1.4323277e-014 64 0 z M 64 8 C 94.927946 8 120 33.072054 120 64 C 120 94.927946 94.927946 120 64 120 C 33.072054 120 8 94.927946 8 64 C 8 33.072054 33.072054 8 64 8 z "
       transform="translate(0,924.36218)"
       id="path3781"
       inkscape:export-filename="C:\Users\Edward\Documents\Android Workspace\ShokoRocketAndroid\ShokoRocket\res\drawable-ldpi\path3794.png"
       inkscape:export-xdpi="45"
       inkscape:export-ydpi="45" />
    <path
       sodipodi:type="inkscape:offset"
       inkscape:radius="6.4863257"
       inkscape:original="M 268 -48.5 L 184 0 L 268 48.5 L 268 -48.5 z "
       style="fill:#999999;fill-opacity:0.78431374;stroke:none"
       id="path3794"
       d="M 267.8125,-54.96875 A 6.4869744,6.4869744 0 0 0 264.75,-54.125 l -84,48.5 a 6.4869744,6.4869744 0 0 0 0,11.25 l 84,48.5 A 6.4869744,6.4869744 0 0 0 274.5,48.5 l 0,-97 a 6.4869744,6.4869744 0 0 0 -6.6875,-6.46875 z"
       transform="matrix(-0.729,0,0,0.729,238.74897,988.36673)"
       inkscape:export-filename="C:\Users\Edward\Documents\Android Workspace\ShokoRocketAndroid\ShokoRocket\res\drawable-ldpi\path3794.png"
       inkscape:export-xdpi="45"
       inkscape:export-ydpi="45" />
  </g>
</svg>
