<?xml version="1.0" encoding="UTF-8" standalone="no"?>
<!-- Created with Inkscape (http://www.inkscape.org/) -->
<svg
   xmlns:dc="http://purl.org/dc/elements/1.1/"
   xmlns:cc="http://creativecommons.org/ns#"
   xmlns:rdf="http://www.w3.org/1999/02/22-rdf-syntax-ns#"
   xmlns:svg="http://www.w3.org/2000/svg"
   xmlns="http://www.w3.org/2000/svg"
   xmlns:sodipodi="http://sodipodi.sourceforge.net/DTD/sodipodi-0.dtd"
   xmlns:inkscape="http://www.inkscape.org/namespaces/inkscape"
   width="960"
   height="160"
   id="svg2463"
   sodipodi:version="0.32"
   inkscape:version="0.46"
   version="1.0"
   sodipodi:docname="CloudTile.svg"
   inkscape:output_extension="org.inkscape.output.svg.inkscape"
   inkscape:export-filename="C:\Documents and Settings\Edward\My Documents\Android\ShokoRocket\ShokoRocket\assets\Bitmaps\Game\CloudTile.png"
   inkscape:export-xdpi="90"
   inkscape:export-ydpi="90">
  <defs
     id="defs2465">
    <inkscape:perspective
       sodipodi:type="inkscape:persp3d"
       inkscape:vp_x="0 : 526.18109 : 1"
       inkscape:vp_y="0 : 1000 : 0"
       inkscape:vp_z="744.09448 : 526.18109 : 1"
       inkscape:persp3d-origin="372.04724 : 350.78739 : 1"
       id="perspective2471" />
  </defs>
  <sodipodi:namedview
     id="base"
     pagecolor="#ffffff"
     bordercolor="#666666"
     borderopacity="1.0"
     gridtolerance="10000"
     guidetolerance="10"
     objecttolerance="10"
     inkscape:pageopacity="0.0"
     inkscape:pageshadow="2"
     inkscape:zoom="0.49497475"
     inkscape:cx="121.22215"
     inkscape:cy="-90.736687"
     inkscape:document-units="px"
     inkscape:current-layer="layer1"
     showgrid="true"
     inkscape:window-width="1180"
     inkscape:window-height="742"
     inkscape:window-x="92"
     inkscape:window-y="0">
    <inkscape:grid
       type="xygrid"
       id="grid2476"
       visible="true"
       enabled="true"
       spacingx="16px"
       spacingy="16px" />
  </sodipodi:namedview>
  <metadata
     id="metadata2468">
    <rdf:RDF>
      <cc:Work
         rdf:about="">
        <dc:format>image/svg+xml</dc:format>
        <dc:type
           rdf:resource="http://purl.org/dc/dcmitype/StillImage" />
      </cc:Work>
    </rdf:RDF>
  </metadata>
  <g
     inkscape:label="Layer 1"
     inkscape:groupmode="layer"
     id="layer1">
    <path
       sodipodi:type="inkscape:offset"
       inkscape:radius="13.170778"
       inkscape:original="M 80 180 C 52.338911 180 29.025833 198.7439 22.09375 224.21875 C 15.25363 221.50487 7.8026544 220 0 220 C -33.12 220 -60 246.88 -60 280 L -60 360 L 1020 360 L 1020 280 C 1020 246.88 993.12 220 960 220 C 940.35083 220 922.91537 229.45044 911.96875 244.0625 C 905.33263 241.45717 897.88659 240 890 240 C 878.71753 240 868.30714 242.98215 859.9375 248.03125 C 858.89721 221.34744 836.93723 200 810 200 C 791.06504 200 774.57996 210.56187 766.09375 226.09375 C 758.01709 230.50662 751.28511 237.10338 746.6875 245.0625 C 741.91763 241.86507 736.16973 240 730 240 C 723.42617 240 717.35116 242.12844 712.40625 245.71875 C 702.14967 230.39845 682.53323 220 660 220 C 649.58754 220 639.7876 222.20025 631.25 226.09375 C 622.23544 210.34386 607.11434 200 590 200 C 578.01261 200 566.99134 205.08108 558.375 213.53125 C 554.33364 205.66872 543.1583 200 530 200 C 513.44 200 500 208.96 500 220 C 500 220.33456 500.00685 220.66946 500.03125 221 C 479.49527 225.16348 463.49918 241.91061 460.5 262.84375 C 456.74077 261.71937 452.58169 260.86494 448.15625 260.40625 C 449.35607 257.16458 450 253.65716 450 250 C 450 233.44 436.56 220 420 220 C 405.34458 220 393.14638 230.53802 390.53125 244.4375 C 384.26296 241.60636 377.32106 240 370 240 C 352.13022 240 336.46681 249.41943 327.625 263.53125 C 320.45405 254.17829 310.6106 247.00955 299.21875 243.15625 C 296.1187 229.89159 284.20492 220 270 220 C 266.24911 220 262.65458 220.67838 259.34375 221.9375 C 255.48692 198.16429 234.85706 180 210 180 C 183.92545 180 162.50835 199.98688 160.21875 225.46875 C 154.28755 221.98762 147.36976 220 140 220 C 138.86434 220 137.73678 220.06331 136.625 220.15625 C 128.42681 196.77818 106.16679 180 80 180 z "
       style="opacity:1;fill:#008fe4;fill-opacity:1;stroke:none;stroke-width:4;stroke-linecap:round;stroke-linejoin:round;stroke-miterlimit:4;stroke-dasharray:none;stroke-opacity:1"
       id="path3297"
       d="M 80,166.84375 C 51.113647,166.84375 26.05877,183.72944 14.1875,208.21875 C 9.590274,207.30932 4.8478656,206.84375 0,206.84375 C -40.246218,206.84375 -73.15625,239.75378 -73.15625,280 L -73.15625,360 C -73.147519,367.26238 -67.262377,373.14752 -60,373.15625 L 1020,373.15625 C 1027.2624,373.14749 1033.1475,367.26236 1033.1562,360 L 1033.1562,280 C 1033.1562,239.75378 1000.2462,206.84375 960,206.84375 C 939.53117,206.84375 920.92639,215.32881 907.625,228.96875 C 901.99479,227.59896 896.10534,226.84375 890,226.84375 C 882.95067,226.84375 876.14492,227.81755 869.75,229.625 C 861.22784,204.79435 837.60928,186.84375 810,186.84375 C 787.51189,186.84375 767.743,198.76764 756.5625,216.59375 C 751.26401,219.92188 746.5156,223.99216 742.4375,228.6875 C 738.48228,227.49856 734.30243,226.84375 730,226.84375 C 725.031,226.84375 720.25253,227.71393 715.78125,229.28125 C 702.12808,215.26788 682.10436,206.84375 660,206.84375 C 651.71205,206.84375 643.74728,208.099 636.25,210.3125 C 624.93581,196.24681 608.57243,186.84375 590,186.84375 C 579.07302,186.84375 568.80588,190.14968 559.9375,195.6875 C 551.84602,189.65809 541.20662,186.84375 530,186.84375 C 519.34459,186.84375 509.46961,189.57234 501.46875,194.90625 C 495.93309,198.59669 491.11344,204.01947 488.625,210.59375 C 476.80415,214.85135 466.69823,222.56748 459.34375,232.46875 C 452.56665,217.42651 437.45194,206.84375 420,206.84375 C 404.23379,206.84375 390.312,215.39503 382.78125,228.15625 C 378.65319,227.29791 374.37363,226.84375 370,226.84375 C 353.31705,226.84375 338.09613,233.38742 326.78125,244.03125 C 321.66608,239.74943 316.01496,236.1443 309.84375,233.375 C 303.30485,217.75804 287.8378,206.84375 270,206.84375 C 269.54427,206.84375 269.10975,206.95467 268.65625,206.96875 C 259.39731,183.51473 236.5992,166.84375 210,166.84375 C 182.9662,166.84375 159.76666,184.01886 150.8125,208.0625 C 148.99173,207.68437 147.15887,207.37459 145.28125,207.1875 C 133.21482,183.26518 108.47386,166.84375 80,166.84375 z"
       transform="translate(0,-140)" />
    <path
       style="opacity:1;fill:#ffffff;fill-opacity:1;stroke:none;stroke-width:4;stroke-linecap:round;stroke-linejoin:round;stroke-miterlimit:4;stroke-dasharray:none;stroke-opacity:1"
       d="M 80,40 C 52.338911,40 20,64 32,96 C 25.15988,93.28612 20,80 0,80 C -33.12,80 -60,106.88 -60,140 L -60,220 L 1020,220 L 1020,140 C 1020,106.88 993.12,80 960,80 C 940.35083,80 908,88 940,120 C 933.36388,117.39467 920,96 890,100 C 878.8165,101.49113 852.36964,118.9509 844,124 C 872,92 836.93723,60 810,60 C 791.06504,60 772,64 772,84 C 760,84 744,96 760,120 C 755.23013,116.80257 748,100 730,100 C 708,100 708,120 700,120 C 716,96 682.53323,80 660,80 C 636,80 636,92 640,104 C 628,76 607.11434,60 590,60 C 568,60 556,100 544,96 C 564,68 543.1583,60 530,60 C 513.44,60 500,68.96 500,80 C 500,80.33456 500.00685,80.66946 500.03125,81 C 479.49527,85.16348 460,100 456,136 C 452,124 450,113.65716 450,110 C 450,93.44 436.56,80 420,80 C 405.34458,80 384,88 408,120 C 400,120 384,96 370,100 C 352.13022,100 332,108 328,132 C 328,108 310.6106,107.00955 299.21875,103.15625 C 296.1187,89.89159 284.20492,80 270,80 C 260,80 264,88 252,96 C 268,60 234.85706,40 210,40 C 176,40 156,60 168,92 C 160,76 147.36976,80 140,80 C 138.86434,80 137.73678,80.06331 136.625,80.15625 C 128.42681,56.77818 106.16679,40 80,40 z"
       id="path2478"
       sodipodi:nodetypes="cccccccscccsccscscscssccssccccscccscc" />
  </g>
</svg>
